<svg id="Capa_1" data-name="Capa 1" xmlns="http://www.w3.org/2000/svg" viewBox="0 0 294.59 315.54"><defs><style>.cls-1{fill:#cbbba0;}.cls-2{fill:#7b6a58;}</style></defs><path class="cls-1" d="M175.9,198.28a.31.31,0,0,1-.27-.25c-.09-.52-.15-1.05-.2-1.57-.25-.92-.49-1.81-.64-2.65-.44-2.4-.52-4.86-.91-7.27a10.86,10.86,0,0,1-.17-2.44,3.34,3.34,0,0,0-.73-1.39,1.18,1.18,0,0,1-.33-.85,5.4,5.4,0,0,0-.31-2.62,7.46,7.46,0,0,0-.71-2.23,5.41,5.41,0,0,1-.7-2.95c0-1.17-.11-2.35-.15-3.52,0-.89,0-1.77,0-2.66s0-1.56,0-2.34c0-.46-.08-.92-.07-1.38a4,4,0,0,0-.82-2.49,11.41,11.41,0,0,1-1.78-3.74,3.37,3.37,0,0,0-.59-1.35,2.29,2.29,0,0,1-.48-2.37,4.38,4.38,0,0,0-.07-2.84,26.13,26.13,0,0,1-1-4.25c-.1-.53-.16-1.06-.23-1.58s-.17-1.2-.25-1.8a7.09,7.09,0,0,1-.15-1.37,19.77,19.77,0,0,1,.3-2.54,3,3,0,0,0-.35-2.25,9.08,9.08,0,0,1-.73-1.42,2.41,2.41,0,0,1-.24-1.4,1,1,0,0,0-.05-.16.35.35,0,0,1-.23-.32,1.94,1.94,0,0,0,0-.24,1.47,1.47,0,0,1-1.06-.68,5.23,5.23,0,0,1-.51-.93l-1-1.87a2.18,2.18,0,0,0-.66-.62,3,3,0,0,0-2.37-.3,1.42,1.42,0,0,0-.08.48c0,1,.11,1.92.17,2.87a9.22,9.22,0,0,1,.09,1.17,3,3,0,0,0,.4,1.94,3,3,0,0,1,.24.92c.08.31.14.61.24.91a14.85,14.85,0,0,1,.84,4.59,9,9,0,0,0,.68,4.16,1.5,1.5,0,0,1,.1.52,9,9,0,0,1,0,3A13.38,13.38,0,0,0,161,152a2.3,2.3,0,0,0,.52,1.7,2.82,2.82,0,0,1,.58,1.34c.09.45.25.89.34,1.34a25.85,25.85,0,0,1,.65,3.45,19.89,19.89,0,0,1-.22,3,2.9,2.9,0,0,0,0,1.06,5.08,5.08,0,0,1,0,2.51,1.76,1.76,0,0,0,.5,1.75,2.19,2.19,0,0,1,.65,1.42,9.28,9.28,0,0,0,.31,1.57,11.69,11.69,0,0,1,.52,3.57,4.23,4.23,0,0,0,0,1.07,2.86,2.86,0,0,1-.32,2.16,3.37,3.37,0,0,0-.27,2.49c.43,1.57.37,3.25,1.17,4.73a9.16,9.16,0,0,1,.4,1,6.47,6.47,0,0,1,.54,2c.16,2.37.4,4.74.63,7.11s.49,4.59.72,6.89a3.18,3.18,0,0,0,1.94,3,2.78,2.78,0,0,1,.62.41,1,1,0,0,0,1,.18,3.78,3.78,0,0,1,1.25-.05,16.61,16.61,0,0,0,2.73-.38,1.12,1.12,0,0,0,.51-.33l.29-.62A11.2,11.2,0,0,0,175.9,198.28Z" transform="translate(-11.45 -8.67)"/><path class="cls-1" d="M152.72,184.35c.06-1.21,0-2.42,0-3.63a2.38,2.38,0,0,0-.41-1.4,2.54,2.54,0,0,1-.42-1.19,21.7,21.7,0,0,1,0-2.55,1.2,1.2,0,0,1,.25-.68,2.08,2.08,0,0,0,.4-1.29c.09-1.35.21-2.7.32-4s.24-2.49.25-3.73c0-1.6-.07-3.2-.14-4.8a6.6,6.6,0,0,0-.19-1.9,4.32,4.32,0,0,1-.14-2.41,6.68,6.68,0,0,0,0-2.23,5.5,5.5,0,0,1,.09-2.64,15.83,15.83,0,0,0,.4-7.49c0-.28-.12-.55-.19-.83A2.52,2.52,0,0,1,153,142a11.88,11.88,0,0,0,.63-4.1,35.74,35.74,0,0,0-.41-4.25,3.43,3.43,0,0,0-1.26-2.46c0-.28,0-.53-.08-.77a1,1,0,0,0-.62-.81l-.3-.12a5.82,5.82,0,0,0-2.2.72c0,.27-.1.53-.16.8a9.21,9.21,0,0,0-.23,3.8,8.91,8.91,0,0,1-.08,3,18,18,0,0,0-.53,4.33,9.2,9.2,0,0,1,.17,1.47,10.4,10.4,0,0,1-.84,4.15,4.65,4.65,0,0,0-.36,2.78,2.86,2.86,0,0,1,.14.94,2.85,2.85,0,0,0,.13,1.36c.19.61.34,1.23.49,1.85a3.7,3.7,0,0,1,.08,1.9,44.89,44.89,0,0,0-.86,6.44c-.16,1.38-.2,2.77-.33,4.15a4.84,4.84,0,0,0,.24,2.91,2.43,2.43,0,0,1,.2.94c.1,1.31.18,2.62.27,3.93,0,.6.07,1.2.13,1.81a15.15,15.15,0,0,1,.07,4.46c-.12.62-.14,1.27-.2,1.9-.19,2.41-.37,4.82-.57,7.24,0,.24-.09.48-.13.73a2.72,2.72,0,0,0-.08.63c0,1.42-.4,2.83-.09,4.25a2.06,2.06,0,0,1,0,.43c-.05,1.53-.14,3.06-.12,4.58a4.54,4.54,0,0,0,.42,1.94,6.82,6.82,0,0,1,.56,2,3.18,3.18,0,0,0,.87,1.67,1.74,1.74,0,0,0,2.06.4,3.55,3.55,0,0,0,1.34-1,1.22,1.22,0,0,1,.67-.46l.27,0a13.91,13.91,0,0,0,.6-1.71c.27-2.92.07-5.77.1-8.76a15.73,15.73,0,0,1,.56-4.48l0-.1a4.26,4.26,0,0,0-.16-1A15.12,15.12,0,0,1,152.72,184.35Z" transform="translate(-11.45 -8.67)"/><path class="cls-1" d="M143.67,130c-.33,0-.66,0-1,.06l-.06.07L140.85,132a5.27,5.27,0,0,0-1.58,2,.68.68,0,0,1-.26.32,2.46,2.46,0,0,0-1,2c-.13,1.05-.2,2.12-.33,3.18A3.28,3.28,0,0,0,138,142a.8.8,0,0,1,0,1,2.56,2.56,0,0,0-.44,2.07,1.43,1.43,0,0,0-1.34,1.49,1.45,1.45,0,0,1-.2.49,19.9,19.9,0,0,0-1.47,3.65,1.74,1.74,0,0,1-.24.47,4.56,4.56,0,0,0-.57,2.36c0,1.07,0,2.14,0,3.21,0,.46.06.92.07,1.38,0,.93.1,1.85.08,2.77a2.87,2.87,0,0,1-.31,1.23,14.59,14.59,0,0,0-1.3,3.94,13.61,13.61,0,0,0-.32,5.5,4.33,4.33,0,0,1,0,1.48c-.1.59-.34,1.15-.48,1.74s-.13,1.42-.86,1.85c-.15.09-.2.37-.26.57-.12.41-.22.83-.31,1.24-.71,3-1.35,6-2.14,9a34,34,0,0,0-.8,6.33c-.06.82-.11,1.63-.21,2.44a6.15,6.15,0,0,0,.21,3,4.52,4.52,0,0,1,.14,2.31,4.53,4.53,0,0,0,0,1.47c.11.63.47.85,1.14.87h.39c.94,1.15,1.09,1.19,2.46.64l.49-.2a1.5,1.5,0,0,0,.9-1c.19-.61.43-1.2.56-1.82.17-.83.28-1.67.37-2.51.1-1,.14-2,.22-3.06a14.91,14.91,0,0,1,.24-2c.25-1.14,0-2.36.53-3.46a.64.64,0,0,0,0-.41,10.18,10.18,0,0,1,.27-3.48,9.68,9.68,0,0,1,1-3.26,21.35,21.35,0,0,0,1-2.36,3.07,3.07,0,0,0,.1-2.19,11.28,11.28,0,0,1-.57-3.77,6.51,6.51,0,0,0-.08-1.6,6.88,6.88,0,0,1,.12-2.86c.08-.57.28-1.19,1.06-1.3.19,0,.39-.29.5-.5.49-.94.9-1.93,1.42-2.85a2.62,2.62,0,0,0,0-3,1.71,1.71,0,0,1-.14-1.73,4.08,4.08,0,0,0,.29-2.2,8.7,8.7,0,0,1,.13-2.33,8.27,8.27,0,0,0,0-1.79,10.7,10.7,0,0,1,0-1.26c0-.39,0-.71-.32-.93s-.36-.59-.34-1a1.54,1.54,0,0,1,.91-1.34,2.92,2.92,0,0,0,1.48-2,12.31,12.31,0,0,0,.36-4,11,11,0,0,1,.32-4,28,28,0,0,0,1.25-4.52c.08-.56.18-1.12.28-1.68l.69-3.65v0A2.89,2.89,0,0,0,143.67,130Z" transform="translate(-11.45 -8.67)"/><path class="cls-1" d="M210.44,184.68a2.44,2.44,0,0,1-.08-1.56,1.35,1.35,0,0,0-.18-.91l-1-2.25a14.69,14.69,0,0,1-3.83-6.51c-1.52-2-3-4.23-2.8-6.49a4,4,0,0,1-1.45-1.83c-.2-.42-.41-.83-.61-1.24a7.14,7.14,0,0,1-.92-2.92,3,3,0,0,0-.48-1.61,8.89,8.89,0,0,1-1.07-2.19,7.61,7.61,0,0,0-.55-1.27,4.41,4.41,0,0,0-2.16-2.12,1.68,1.68,0,0,1-1.22-1.59,3.65,3.65,0,0,0-.08-.74,5.54,5.54,0,0,0-.41-1.42,19.89,19.89,0,0,0-3.36-4.79,2.25,2.25,0,0,1-.5-.91c-.23-.77-.43-1.55-.66-2.33a23.07,23.07,0,0,1-2.82-3.38,10.11,10.11,0,0,1-1.72-2.35,5.26,5.26,0,0,1-1.21-.91,8.4,8.4,0,0,0-1.89-1.53l0,0a2.21,2.21,0,0,0-1.65,1.89c0,.18-.07.35-.11.52a4.09,4.09,0,0,0,.13,2.52c.13.37.55.64.73,1a16.7,16.7,0,0,0,2.25,3,3.45,3.45,0,0,0,1,.91,3.6,3.6,0,0,1,1.54,1.71,2,2,0,0,0,.81,1,1,1,0,0,1,.46,1.37,3.56,3.56,0,0,0,.56,3.23c.64,1,1.32,2,1.89,3.09,1,1.8,1.91,3.64,2.87,5.47.11.21.27.41.4.62a6.92,6.92,0,0,1,.78,1.26,27.47,27.47,0,0,0,1.61,3.69,3.85,3.85,0,0,1,.36.77c.16.5.27,1,.38,1.53.05.21,0,.43.06.63.19,1.05.39,2.1.6,3.14a3.08,3.08,0,0,0,.35,1.11,10.68,10.68,0,0,0,1.75,2.26c.35.3.71.59,1.09.86a1.17,1.17,0,0,1,.49,1.4,1.65,1.65,0,0,0,.11,1.24c.25.59.52,1.17.76,1.76a14.34,14.34,0,0,1,.86,2.4,12.69,12.69,0,0,0,2.08,4.41,2.35,2.35,0,0,1,.56,1.76,1.41,1.41,0,0,0,1.14,1.76.82.82,0,0,1,.35.23,2,2,0,0,0,2.28.38,3.58,3.58,0,0,0,2.55-3.34,6.28,6.28,0,0,1,.06-1.07A3,3,0,0,0,210.44,184.68Z" transform="translate(-11.45 -8.67)"/><path class="cls-1" d="M126.08,132.7a1.76,1.76,0,0,0-2.76.12c-.46.68-1.28,1.08-1.6,1.9,0,.11-.22.16-.34.24-.34.2-.68.39-1,.62a2.62,2.62,0,0,0-1.22,1.39,2.55,2.55,0,0,1-1.76,1.85,1.62,1.62,0,0,0-1,.93c-.24.48-.51.95-.7,1.44a4.85,4.85,0,0,1-1.16,1.64,21.44,21.44,0,0,0-1.56,1.75c-.4.5-.67,1.09-1.09,1.57-1.09,1.27-2,2.67-3.05,4-.47.58-.94,1.16-1.39,1.75s-1.16,1.37-1,2.39a1,1,0,0,1-.19.58c-.75,1.41-1.62,2.77-2.24,4.23a5.73,5.73,0,0,1-1.65,2.3A3.66,3.66,0,0,0,101,163.8a11.39,11.39,0,0,1-.66,2.66,1.52,1.52,0,0,0-.1.63,2.28,2.28,0,0,1-.48,1.49,5.07,5.07,0,0,0-.82,2.93,1.41,1.41,0,0,1-.13.71,14.06,14.06,0,0,1-1,1.6,4.93,4.93,0,0,0-.67,1.07A10.05,10.05,0,0,1,95.91,177a8.44,8.44,0,0,0-1.12,1.8,4,4,0,0,1-.69,1.08A33.39,33.39,0,0,1,92.64,183a3.27,3.27,0,0,1,.1,1.56,1,1,0,0,0,.1.52,3.8,3.8,0,0,1,.66,2c0,.13.19.29.31.41a3,3,0,0,0,1.47.84,2,2,0,0,1,.52.19A6.43,6.43,0,0,0,97.29,187a3.34,3.34,0,0,1,1.08-1,31.6,31.6,0,0,1,3.16-5.94c.76-1.83,1.67-3.58,2.57-5.35a.59.59,0,0,1,.4-.33c.1-.18.21-.37.32-.54a5,5,0,0,0,.47-1.3c.23-.74.43-1.5.68-2.23a7.27,7.27,0,0,0,.39-3,2.89,2.89,0,0,1,.36-1.94,15,15,0,0,1,.94-1.41c.71-.89,1.47-1.73,2.19-2.62a4.3,4.3,0,0,0,.83-1.23,16.32,16.32,0,0,1,1.57-3.26,1.88,1.88,0,0,0,.16-.39c.33-1,.7-2,1-3.05a7.45,7.45,0,0,1,2.36-3.57,3.28,3.28,0,0,0,1.42-3,1.18,1.18,0,0,1,.5-1.11A6.74,6.74,0,0,0,119,144a22.27,22.27,0,0,1,2.13-2.65.68.68,0,0,1,.35-.22,1.3,1.3,0,0,0,.87-.73,1.49,1.49,0,0,1,.4-.49,3.61,3.61,0,0,0,1.16-1.62,34.25,34.25,0,0,1,2.19-4.26A1.08,1.08,0,0,0,126.08,132.7Z" transform="translate(-11.45 -8.67)"/><path class="cls-1" d="M173.25,141.79a4.88,4.88,0,0,1-2.22-2.63,27.4,27.4,0,0,1-1.83-4.89,10.05,10.05,0,0,1-.22-1.89.7.7,0,0,1,1.14-.66c.69.44,1.37.89,2.08,1.3a1.45,1.45,0,0,1,.79.93c.25,1,.67,1.88.9,2.84a10.51,10.51,0,0,0,2,3.62,18.94,18.94,0,0,0,1.79,2.12,9,9,0,0,1,1.64,2.72c.29.65.48,1.34.73,2s.48,1.19.7,1.79a8.3,8.3,0,0,1,.44,1.42c.18,1,.25,2.12.44,3.16a7.44,7.44,0,0,0,.62,1.92c.53,1,1.18,1.94,1.76,2.91a16.12,16.12,0,0,1,.9,1.69,11.09,11.09,0,0,0,.83,2,1.72,1.72,0,0,1,.13.92,4.09,4.09,0,0,0,.62,2.55,1.79,1.79,0,0,1,.25,1.33,2.37,2.37,0,0,0,.31,1.42,18.46,18.46,0,0,1,.8,2.19c.38,1.15.7,2.32,1.09,3.46a2.45,2.45,0,0,0,.56.78,4.31,4.31,0,0,1,.88,1.56,7.87,7.87,0,0,0,.4,1,3.53,3.53,0,0,1,.35,2c-.07.85-.11,1.7-.15,2.55a1.49,1.49,0,0,0,.1.63,16.36,16.36,0,0,1,1.1,4.2,9.81,9.81,0,0,0,.8,2.19c.25.66.55,1.31.78,2,.37,1.1.74,2.21,1.05,3.33a4.08,4.08,0,0,1,0,1.26c0,.28-.15.55-.16.83a2.67,2.67,0,0,1-1.47,2.21.9.9,0,0,1-.49.2,8.65,8.65,0,0,1-3.48-.59,1.13,1.13,0,0,1-.57-1,18.37,18.37,0,0,1-.24-2.76,6.65,6.65,0,0,0-.68-2.76c-.28-.72-.67-1.4-1-2.11a3.65,3.65,0,0,1-.31-1.88,12.66,12.66,0,0,0-.53-4.73,11.4,11.4,0,0,1-.26-1.67,14.91,14.91,0,0,0-.32-1.89,11.21,11.21,0,0,0-1.09-3.1,7.94,7.94,0,0,1-1.07-2.77,3,3,0,0,0-.86-1.56,6,6,0,0,1-1.64-3.84,22,22,0,0,0-.63-3.11,26.89,26.89,0,0,0-1.6-3.83,6.81,6.81,0,0,0-.8-1.25,1.26,1.26,0,0,1-.32-1.09,4.71,4.71,0,0,0-.1-2.21,2,2,0,0,1,0-1,4.77,4.77,0,0,0,.16-.73,4.39,4.39,0,0,0-1.87-4.65,2.94,2.94,0,0,1-1.3-2.11,2.74,2.74,0,0,0-.09-.64,23.86,23.86,0,0,1-.88-4.59C173.22,142.48,173.25,142.2,173.25,141.79Z" transform="translate(-11.45 -8.67)"/><path class="cls-1" d="M110.31,183.19a12.93,12.93,0,0,1,1-4.33c.23-.53.44-1.05.65-1.58a3.25,3.25,0,0,1,1-1.35,3.82,3.82,0,0,0,1.26-1.92c.21-.79.41-1.58.65-2.36a11.2,11.2,0,0,1,.45-1.08c.28-.69.54-1.39.84-2.07a5.17,5.17,0,0,1,.68-1.19,4.74,4.74,0,0,0,.94-1.77c.32-1.06.61-2.12.91-3.18.06-.23.07-.49.11-.73a4.51,4.51,0,0,1,.16-.83c.63-1.7,1.18-3.44,2-5.07a43.62,43.62,0,0,0,1.41-4.56,4.75,4.75,0,0,1,1.58-2.59,1.53,1.53,0,0,0,.39-.5,6.2,6.2,0,0,0,.44-.85,41.38,41.38,0,0,1,4.13-7.81c.93-1.43,1.68-3,2.55-4.44a9.09,9.09,0,0,1,.92-1.15L133,133c.2-.25.4-.5.61-.73s.66-.64.93-1c.55-.72,1-.73,1.46,0,.06.09.06.23.14.28.8.63.5,1.26.07,2-1,1.63-2,3.3-3,4.92-.48.75-1,1.43-1.59,2.14a5.39,5.39,0,0,0-1.19,3.24,11.59,11.59,0,0,1-.48,2.28,1.06,1.06,0,0,1-.29.44,9.21,9.21,0,0,0-2.08,3.29,24.84,24.84,0,0,1-1.59,3,4.5,4.5,0,0,0-.6,1.92,10,10,0,0,1-.87,2.73,3.82,3.82,0,0,0-.19,1.46,8,8,0,0,1-.15,1.89c-.22,1.19-.47,2.38-.77,3.55-.2.82-.51,1.62-.78,2.43-.14.44-.33.87-.44,1.31a13.93,13.93,0,0,1-2.16,4.26,7.27,7.27,0,0,0-1.18,2.82,6.59,6.59,0,0,1-1,2.23,3.23,3.23,0,0,0-.61,2.3,5.46,5.46,0,0,1,0,1.07,4.78,4.78,0,0,1-.54,1.82,32.08,32.08,0,0,0-1.35,3.13c-.53,1.39-1,2.81-1.5,4.23-.11.33-.25.66-.36,1a10.56,10.56,0,0,0-.58,3.57,2.14,2.14,0,0,1-1.31,2.23,2.89,2.89,0,0,1-2.93-.37s0,0-.08-.07a8.54,8.54,0,0,1-1.42-3.62,7.61,7.61,0,0,1,1.6-4.32,2.78,2.78,0,0,0,.43-.84c.29-.8.55-1.62.83-2.42A3.87,3.87,0,0,0,110.31,183.19Z" transform="translate(-11.45 -8.67)"/><path class="cls-1" d="M192,139.6a1.63,1.63,0,0,1-1-1.66c0-.53-.11-1.07-.08-1.6a1,1,0,0,1,1.72-.87,16.09,16.09,0,0,1,3.48,2.8,10.91,10.91,0,0,0,2.2,1.84,21.75,21.75,0,0,1,2.37,2.43c.17.17.31.39.48.57a1.9,1.9,0,0,1,.56,1.23,1,1,0,0,0,.68,1,.76.76,0,0,1,.52.74,1.39,1.39,0,0,0,.59,1.09,7.47,7.47,0,0,1,2.08,2.68,2,2,0,0,0,.82.93,1.84,1.84,0,0,1,.87,1.3,4.2,4.2,0,0,0,.76,1.84,2.3,2.3,0,0,1,.32.9,1.2,1.2,0,0,0,.92.94,6.55,6.55,0,0,1,2.23,1.39,3.59,3.59,0,0,1,1.07,2,4.18,4.18,0,0,0,1.14,2.1,2.51,2.51,0,0,1,.52,1.35A1.65,1.65,0,0,0,215,164c.15.08.24.26.35.4l3.72,4.53c.11.14.31.25.34.4.31,1.32,1.47,2.07,2.08,3.19.45.83,1.14,1.53,1.63,2.36a3.3,3.3,0,0,1-1.32,4.58,7.23,7.23,0,0,1-2.73.31c-.57-.46-1.31-.73-1.6-1.5s-.49-1.33-.77-2a6.4,6.4,0,0,0-.55-1,14.72,14.72,0,0,1-1.1-1.94,7.72,7.72,0,0,0-1.39-1.86,3.87,3.87,0,0,1-1.08-1.67,1.85,1.85,0,0,0-.86-1.17,5.21,5.21,0,0,1-.78-.71c-.23-.22-.46-.44-.7-.65-.08-.07-.23-.09-.26-.17-.39-1-1.42-1.46-1.76-2.47a7.27,7.27,0,0,0-.56-1,2.68,2.68,0,0,1-.29-.68c-.2-1.08-.42-2.16-.53-3.25a2.33,2.33,0,0,0-.73-1.6,15,15,0,0,0-2.16-1.72,2.92,2.92,0,0,1-.85-.79c-.71-1.1-1.38-2.24-2.05-3.37a1.21,1.21,0,0,1-.21-.6,6.44,6.44,0,0,0-.83-2.29,2.26,2.26,0,0,0-1.27-1.23,2,2,0,0,1-.8-.65,9.49,9.49,0,0,0-2-2.1,2.07,2.07,0,0,1-.69-.81,6.44,6.44,0,0,0-2-2.2A2.94,2.94,0,0,1,192,139.6Z" transform="translate(-11.45 -8.67)"/><path class="cls-1" d="M81.76,175.35A2,2,0,0,1,80.08,173a17.06,17.06,0,0,0,.33-2.75,1.74,1.74,0,0,1,.4-.95c.91-1.14,1.82-2.28,2.81-3.35,1.16-1.24,2.41-2.41,3.62-3.6a4.48,4.48,0,0,0,1.64-2.66.69.69,0,0,1,.13-.29,25.84,25.84,0,0,1,1.52-2.19c.72-.83,1.53-1.58,2.32-2.35,1.27-1.25,2.57-2.46,3.82-3.72a3.15,3.15,0,0,0,.77-1.73,10.13,10.13,0,0,1,.56-1.93,3.8,3.8,0,0,1,1.53-1.72c.53-.35,1-.77,1.52-1.15a1.92,1.92,0,0,1,.34-.26c1.25-.54,1.91-1.68,2.71-2.67l1.2-1.5a2.68,2.68,0,0,0,.4-.49,5.8,5.8,0,0,1,1.27-1.56,18.67,18.67,0,0,0,1.67-1.77,2.7,2.7,0,0,1,2.58-1,.93.93,0,0,1,1,.85,1.82,1.82,0,0,1-.53,2c-.48.42-1,.83-1.45,1.26a3.1,3.1,0,0,0-1.34,2.2,2.31,2.31,0,0,1-.58,1.22,18.78,18.78,0,0,0-1.24,1.86c-.59.92-1.26,1.81-1.92,2.69a2.67,2.67,0,0,1-.67.52,5.75,5.75,0,0,0-2.43,3,5.25,5.25,0,0,1-1,1.61,3.54,3.54,0,0,0-.84,1.7,4.26,4.26,0,0,1-1,2.19c-.77.89-1.52,1.8-2.25,2.71a4.84,4.84,0,0,1-2.52,1.72,1,1,0,0,0-.76.66,3.7,3.7,0,0,0-.28.69,6.68,6.68,0,0,1-1.9,3.29,1.58,1.58,0,0,0-.5,1.33,2,2,0,0,1-.21.92c-.36.88-.76,1.76-1.14,2.63a1.27,1.27,0,0,1-.18.39,13,13,0,0,0-1.78,3.14A1.93,1.93,0,0,1,86.4,175a1.39,1.39,0,0,0-.67.31,3.35,3.35,0,0,1-2,1.07c-1,.21-1.27.19-1.79-.62A3.63,3.63,0,0,1,81.76,175.35Z" transform="translate(-11.45 -8.67)"/><path class="cls-1" d="M211,143.15a2.08,2.08,0,0,1,1.4.56,5.91,5.91,0,0,0,1.23.62,4.56,4.56,0,0,1,2.95,2.43,2.84,2.84,0,0,0,1,1.05,7.71,7.71,0,0,1,2.22,2c.14.23.44.36.64.55a3.16,3.16,0,0,1,.78.86,2.72,2.72,0,0,0,1.22,1.13c.78.48,1.51,1.05,2.26,1.58s1.36.91,2,1.42a3.68,3.68,0,0,1,.86,1.06,3.45,3.45,0,0,0,1.26,1.54,2.18,2.18,0,0,1,.53.52,4.37,4.37,0,0,0,1.44,1.08,2.9,2.9,0,0,1,1.5,1.3.26.26,0,0,0,.05.09,4.15,4.15,0,0,1,1.41,3.3,1.42,1.42,0,0,1-.34,1.18c-.31.34-.59.7-.89,1.06a3.72,3.72,0,0,1-2.06,1.26A2.44,2.44,0,0,1,228,167c-.37-.38-.82-.69-1.17-1.08a5.53,5.53,0,0,1-.88-1.32,12.94,12.94,0,0,0-3.2-4.21,13.23,13.23,0,0,1-1.28-1.41c-.64-.76-1.26-1.54-1.9-2.3a2.63,2.63,0,0,0-1.69-1,2.43,2.43,0,0,1-1.47-1c-.72-.89-1.43-1.77-2.19-2.62a4.87,4.87,0,0,0-1.88-1.38,2.73,2.73,0,0,1-1.73-1.73,10.53,10.53,0,0,0-1.36-2.62,8.24,8.24,0,0,1-.63-1.34,2.18,2.18,0,0,0-.36-.75c-.64-.61-1.31-1.2-2-1.75a1.8,1.8,0,0,1-.51-1.92,1.31,1.31,0,0,1,1.61-.46,18.47,18.47,0,0,1,2,1.11C210.28,141.79,210.33,141.9,211,143.15Z" transform="translate(-11.45 -8.67)"/><path class="cls-1" d="M73.57,166.45a2.73,2.73,0,0,1-.8-.4,2.89,2.89,0,0,0-1.41-.67,1.81,1.81,0,0,1-1.29-2.2,6.67,6.67,0,0,1,1.46-2.69c.28-.37.6-.71.85-1.09a2.39,2.39,0,0,1,1.3-1.2.88.88,0,0,0,.41-.33c.61-.91,1.22-1.82,1.81-2.75.17-.27.26-.62.63-.67s.7-.43.86-.84a6.76,6.76,0,0,1,.33-.78,1.66,1.66,0,0,1,1-.8A13.4,13.4,0,0,0,83,149.27a2.74,2.74,0,0,0,.65-.94,2.47,2.47,0,0,1,.88-1.16c1.52-1.06,3-2.15,4.5-3.24a.85.85,0,0,0,.35-.49,1.61,1.61,0,0,1,.74-1,11.59,11.59,0,0,1,2.81-1.72,2.38,2.38,0,0,0,1.22-1,2.54,2.54,0,0,1,.83-.8,1.18,1.18,0,0,1,1.55.24,2.58,2.58,0,0,1,.2,3.32,5.42,5.42,0,0,1-2,1.88c-.38.18-.64.64-.92,1-.87,1.12-1.72,2.26-2.59,3.38a1.07,1.07,0,0,1-.31.29,5.69,5.69,0,0,0-2.38,2.23,2.06,2.06,0,0,1-.83.63,9.32,9.32,0,0,1-1,.52,2.39,2.39,0,0,0-1.36,1.27,3.47,3.47,0,0,1-1.54,1.42,2.09,2.09,0,0,0-1,1.4,11.77,11.77,0,0,1-1.23,2.58,4.37,4.37,0,0,0-.32.55,10.18,10.18,0,0,1-2,2.71,2.9,2.9,0,0,1-1.4.73,2.34,2.34,0,0,0-1.15.71c-.54.6-1.09,1.19-1.61,1.81C74.67,166,74.69,166,73.57,166.45Z" transform="translate(-11.45 -8.67)"/><path class="cls-1" d="M238.46,153.76c0-.17-.06-.34-.09-.52l.13,0a2,2,0,0,0-.23-.77c-.88-1.1-1.48-2.45-2.83-3.13a10.06,10.06,0,0,1-.81-.68,12.55,12.55,0,0,0-1.78-1.15c-.93-.43-1.91-.75-2.87-1.1a.63.63,0,0,0-.42,0c-.72.26-1-.18-1.33-.71a1.56,1.56,0,0,0-.58-.59c-.94-.48-1.91-.92-2.85-1.4a6.77,6.77,0,0,0-2.67-.69,1.34,1.34,0,0,0-1.41.76c-.28.61.12,1,.53,1.38a1.64,1.64,0,0,1,.48.65,3.79,3.79,0,0,0,1,1.74,7.76,7.76,0,0,1,.81,1c.12.16.24.3.37.45a9.62,9.62,0,0,1,2.2,1,7.73,7.73,0,0,1,1.42,1.3c.6.4,1.22.76,1.84,1.11.85.45,1.71.9,2.54,1.39s1.37.76,2.06,1.18a5.6,5.6,0,0,1,.83.62,7.21,7.21,0,0,0,2.94,1c.1-.2.21-.4.32-.58A2.63,2.63,0,0,0,238.46,153.76Z" transform="translate(-11.45 -8.67)"/><path class="cls-1" d="M79.49,142.63a4.06,4.06,0,0,0-2.47.45,4.7,4.7,0,0,1-2.25.87,5.3,5.3,0,0,0-3.11,1.27,1.05,1.05,0,0,1-.47.21,8.73,8.73,0,0,0-2.66.91v.18a.35.35,0,0,1-.35.35H68c-.62.42-1.26.81-1.88,1.22-.28.19-.4.35-.72.36a2.52,2.52,0,0,1-.6,0,2.44,2.44,0,0,0-.77.93,5.06,5.06,0,0,0-.35,3.73c.36,1,.72,1.24,1.75,1a2.15,2.15,0,0,0,.5-.19,3.51,3.51,0,0,1,2.09-.36,34,34,0,0,1,2.68-2.11,2.43,2.43,0,0,1,1.2-1c1-.43,2.08-.92,3.08-1.45a4,4,0,0,0,1-.9l.31-.28a.59.59,0,0,1,.34-.42c.26-.13.5-.28.75-.43a.7.7,0,0,1,.12-.28l-.28.12c.27-.46.31-.52.82-.48a12.49,12.49,0,0,1,1.63-.83,4.73,4.73,0,0,0,.58-.61C80.89,144,80.39,142.65,79.49,142.63Z" transform="translate(-11.45 -8.67)"/><path class="cls-1" d="M109.73,18.35c.36-.43.55-.69,1-.38C110.55,18.31,110.23,18.26,109.73,18.35Z" transform="translate(-11.45 -8.67)"/><path class="cls-1" d="M75.18,170.51l.43-.09a.49.49,0,0,1,0,.16l-.41.16Z" transform="translate(-11.45 -8.67)"/><path class="cls-1" d="M88.26,176.87c-.13.12-.24.25-.27.24a.75.75,0,0,1-.25-.25s.13-.19.19-.18S88.12,176.78,88.26,176.87Z" transform="translate(-11.45 -8.67)"/><path class="cls-1" d="M88.89,177.74c-.18,0-.31.1-.34.06a1.33,1.33,0,0,1-.18-.31c.09,0,.2-.11.25-.08A1.76,1.76,0,0,1,88.89,177.74Z" transform="translate(-11.45 -8.67)"/><path class="cls-1" d="M200.58,71.9q-.11-1.28-.24-2.55a3.18,3.18,0,0,0-.1-.52c-.16-.61-.33-1.23-.51-1.84a11.46,11.46,0,0,0-1.39-3.44,12,12,0,0,1-2-3.24.63.63,0,0,0-.12-.18c-.51-.68-1-1.41-1.53-2.05-1.1-1.25-1.5-2.9-2.48-4.22,0,0,0-.13-.07-.2a18.78,18.78,0,0,0-3.43-5.49,2.32,2.32,0,0,0-1.12-.77,1.31,1.31,0,0,1-.9-.69,2.89,2.89,0,0,0-1.21-1.16,1.78,1.78,0,0,1-1.05-1.38.8.8,0,0,0-.22-.47,18.21,18.21,0,0,0-1.93-2.11c-1.66-1.21-3.21-2.57-4.82-3.85-.24-.19-.55-.41-.86-.13s-.66.12-1,0c-1.27-.7-2.55-1.4-3.83-2.08a23,23,0,0,0-2.39-1.18c-1.76-.69-3.53-1.32-5.31-2a5.18,5.18,0,0,0-1-.21,20.61,20.61,0,0,1-2.21-.31,6.86,6.86,0,0,0-1.69-.15,19.72,19.72,0,0,1-4.66-.3,8.93,8.93,0,0,0-3.3-.09,33.66,33.66,0,0,1-3.61.24,7.07,7.07,0,0,0-1.9.24,22.75,22.75,0,0,0-5.58,2.39,4.4,4.4,0,0,1-2.76,1,.85.85,0,0,0-.31.06c-1.72.44-3.45.87-5.17,1.33a2.09,2.09,0,0,0-.93.49c-1.42,1.45-3.27,2.27-4.91,3.39-1.12.75-2.33,1.36-3.51,2-.46.26-.94.5-1.4.76a3.93,3.93,0,0,0-.8.52,19.63,19.63,0,0,0-1.6,1.56,26,26,0,0,0-3.75,5.81,4,4,0,0,1-1.3,1.64,17,17,0,0,0-3.18,2.81A4.72,4.72,0,0,0,109.08,59a3.77,3.77,0,0,1-.36,1.53,26.83,26.83,0,0,0-1.33,4.16,50.86,50.86,0,0,1-2,7.16,12.59,12.59,0,0,0-.5,7.74,3.3,3.3,0,0,1,.09.94c-.05,1.43-.2,2.85-.15,4.27a13,13,0,0,0,.55,3.14c.39,1.36.93,2.69,1.44,4a3.29,3.29,0,0,1,.25,2,3.75,3.75,0,0,0,0,.95,14,14,0,0,0,1.28,4.7,18.53,18.53,0,0,1,.68,1.89,10.59,10.59,0,0,0,2,3.5,1,1,0,0,0,.5.37c.87.15,1.19.8,1.51,1.5a7,7,0,0,0,.7,1.43c.92,1.17,1.75,2.45,3.24,3,.09,0,.17.13.26.18l2.42,1.49a5.51,5.51,0,0,1,1.91,1.46,8.19,8.19,0,0,0,1.63,1.53c1.73,1.37,3.89,2,5.65,3.37l.1,0c1.06.4,2.13.78,3.19,1.2a27.85,27.85,0,0,1,3.15,1c.46.25,1,.35,1.49.56a18.27,18.27,0,0,1,3.37,1.59,4,4,0,0,0,2.81.66,11.47,11.47,0,0,1,2.34,0,24.14,24.14,0,0,0,3.61.22,6.86,6.86,0,0,0,4.39-1.42,1.36,1.36,0,0,1,.66-.29c.56-.1,1.13-.12,1.69-.21a9.4,9.4,0,0,0,2.82-.5A2.13,2.13,0,0,1,159,122a11.79,11.79,0,0,0,5-1.84,16,16,0,0,0,2.6-2.35,2.43,2.43,0,0,1,1.47-.79,3,3,0,0,0,1-.28c.85-.44,1.69-.91,2.5-1.41a2.44,2.44,0,0,1,1.18-.42,3.79,3.79,0,0,0,3.17-1.86c.55-.91,1.23-1.74,1.82-2.63a9.75,9.75,0,0,0,.79-1.37,7.48,7.48,0,0,1,1.48-2.31c.46-.45.92-.89,1.36-1.36a6,6,0,0,0,1-1.21,29.14,29.14,0,0,0,1.89-3.69A17.06,17.06,0,0,0,185.41,97a4.51,4.51,0,0,1,1.1-2.16,8.84,8.84,0,0,0,1.68-3.64c.36-1.73.49-3.51.68-5.28.08-.67.07-1.35.09-2a1.4,1.4,0,0,0-.07-.62,2.74,2.74,0,0,1-.2-2c.25-1.18.53-2.36.89-3.51a4.89,4.89,0,0,0,.22-2.83c-.11-.41-.18-.83-.27-1.25a10.62,10.62,0,0,0-1.65-3.42,6.6,6.6,0,0,1-.7-1.31c-.31-.83-.56-1.69-.85-2.53-.05-.17-.09-.38-.21-.47a3,3,0,0,1-.82-1.81,2.22,2.22,0,0,0-.4-1,6,6,0,0,0-1.77-1.51c-.91-.38-1.28-1.18-1.89-1.79-.19-.2-.32-.47-.51-.68a2.55,2.55,0,0,1-.66-1.18,2.39,2.39,0,0,0-1.56-1.86,4,4,0,0,1-2.45-1.74c-.07-.12-.21-.19-.31-.29-1-1-2-1.94-2.95-2.94-.38-.39-.67-.85-1.33-.61-.1,0-.25-.1-.38-.17-.44-.23-.87-.49-1.32-.69a3.2,3.2,0,0,1-1-.72,5.75,5.75,0,0,0-2.49-1.58,10,10,0,0,1-1.92-.61,7.91,7.91,0,0,0-2.2-.73,23.35,23.35,0,0,0-7.31-.52,3.49,3.49,0,0,1-1.16-.07c-.83-.17-1.64-.48-2.47-.57a25.74,25.74,0,0,0-3.51-.12,23.26,23.26,0,0,0-5.19.58,6.93,6.93,0,0,1-1.35.3A11.41,11.41,0,0,0,137,47.2a3.83,3.83,0,0,0-.76.58c-.94.86-1.87,1.73-2.84,2.63a1.75,1.75,0,0,0-1.87,1.22,1.09,1.09,0,0,1-.59.57c-1,.54-2,1.07-3,1.67a19.53,19.53,0,0,0-1.76,1.39.92.92,0,0,1-.87.29.84.84,0,0,0-1,.39,9.17,9.17,0,0,1-.82.83,1.85,1.85,0,0,0-.62,2.2,2,2,0,0,1-.3,1.93c-.25.34-.49.7-.76,1a7.73,7.73,0,0,0-1.6,2.51,4.65,4.65,0,0,1-1.33,1.9l-.56.5a1.2,1.2,0,0,0-.42,1.14,11.1,11.1,0,0,1-.17,4.22c-.07.28-.06.57-.13.85a8.67,8.67,0,0,1-.3,1.11,9.78,9.78,0,0,0-.77,3.41,35,35,0,0,0,.85,5.38c0,.26.28.48.39.74a2,2,0,0,1,.17.69c0,.6,0,1.2,0,1.8a3,3,0,0,1-.23,1.76,1.86,1.86,0,0,0-.16,1.46A13.85,13.85,0,0,0,118.4,92c.63,1.27,1.42,2.46,2.17,3.67a9,9,0,0,1,1.37,2.63,6,6,0,0,0,1,1.88,7.51,7.51,0,0,0,2.64,2.27,5,5,0,0,1,1.76,1.81,5.93,5.93,0,0,0,3.06,2.54,4.52,4.52,0,0,1,1.85.91,1.45,1.45,0,0,1,1.89.28c.19.2.48.3.69.49a3,3,0,0,1,.78.85,1.48,1.48,0,0,0,1,.89c.42.13.38.44.21.74l1,.58.23-.42.85.27a14.83,14.83,0,0,0,5.36.77,34.94,34.94,0,0,1,4.8.1,12.21,12.21,0,0,0,1.6,0c.63,0,1.26-.28,1.88.07.07,0,.2,0,.3,0,.7-.18,1.41-.38,2.12-.53a17.44,17.44,0,0,0,3.82-1.32,27.47,27.47,0,0,1,3.08-1.18c.55-.18,1.1-.32,1.62-.54a8.21,8.21,0,0,0,1.62-.82,18.41,18.41,0,0,0,4.58-4.27c.36-.53.72-1.06,1.12-1.55a10.84,10.84,0,0,0,1.76-3.73,8.59,8.59,0,0,1,1.59-3.32c.11-.14.28-.27.31-.43.18-1.11,1.49-1.55,1.55-2.72a.11.11,0,0,1,.07-.08c.73-.12.78-.81.88-1.28a33.5,33.5,0,0,0,.65-4c.12-1,0-2.07.61-3a.74.74,0,0,0,.08-.3,10.29,10.29,0,0,0-.83-6.64c-.2-.45-.37-.92-.57-1.37a14.84,14.84,0,0,0-.92-2,16.87,16.87,0,0,0-1.73-2.3,5.74,5.74,0,0,0-1.83-1.59c-.22-.09-.36-.42-.49-.66s-.34-.71-.55-1c-.45-.72-1-1.4-1.38-2.15a12.75,12.75,0,0,0-3.13-3.57,2.31,2.31,0,0,0-.71-.47c-1.4-.51-2.81-1-4.23-1.48a5.64,5.64,0,0,0-2.18-.39,2.56,2.56,0,0,1-2-.79,6.63,6.63,0,0,0-3.25-1.72c-.83-.16-1.65-.39-2.48-.54a1.49,1.49,0,0,0-.91.1,2.93,2.93,0,0,1-2.36.34,1.34,1.34,0,0,0-1.55.34,2.49,2.49,0,0,1-1.2.63c-1.6.4-3.31.61-4.5,2-.38-.71-.91-.09-1.32-.29A7.07,7.07,0,0,1,139,61.93c-.24.25-.32.71-.81.7-.09,0-.2.2-.26.32a1.6,1.6,0,0,1-1.13.91,2.07,2.07,0,0,0-1.47,1.25c-.25.47-.43,1-.64,1.45s-.3.72-.47,1.07c-.48,1-1,1.89-1.43,2.85-.14.28-.11.68-.3.88a3.53,3.53,0,0,0-.92,1.8,6.07,6.07,0,0,1-.52,1.4,4.84,4.84,0,0,0-.49,2.37,17,17,0,0,1,0,2.76c-.09.9.42,1.84-.19,2.69,0,.05,0,.14,0,.21a20.46,20.46,0,0,0,1.68,5c.6,1.09.63,1.09,1.74,1.37a10.46,10.46,0,0,0,1.91,3,6,6,0,0,1,.48.81l.17.25.47-.09,1,1c0,.2,0,.47.07.69a5.32,5.32,0,0,0,1.12.5,3.79,3.79,0,0,1,1.79.86,3,3,0,0,0,.56.3,12.14,12.14,0,0,0,4,.93,1.25,1.25,0,0,1,1,.35,1.24,1.24,0,0,0,1.17.36,1.77,1.77,0,0,1,1.13.18,1.78,1.78,0,0,0,1.51.25,6.09,6.09,0,0,1,2.33,0,.94.94,0,0,0,.71-.08c.67-.54,1.5-.81,2.18-1.31a10.57,10.57,0,0,1,3.18-1.47A4.19,4.19,0,0,0,161,93.73c.49-.75.9-1.54,1.39-2.28a4.47,4.47,0,0,0,.74-2,3.62,3.62,0,0,0,1.18-3.18,9.29,9.29,0,0,1,.23-3.15,4.66,4.66,0,0,0-.48-4.14,3.2,3.2,0,0,1-.48-1.39c0-.32-.12-.63-.19-.93a7.85,7.85,0,0,1-1.68-1.86c-.38-.53-1-.72-1.47-1.26a3.63,3.63,0,0,1-.58-1c-.18-.08-.36-.16-.56-.23a5.74,5.74,0,0,1-1.71-.82,5.74,5.74,0,0,0-4.44-1,29.34,29.34,0,0,0-3.11.38,4.61,4.61,0,0,0-2.3.9,42.41,42.41,0,0,0-3.87,4.75,4.88,4.88,0,0,0-.61,4.78,19.11,19.11,0,0,0,3,4.59,4.49,4.49,0,0,0,2.74,1.69c2.62.06,5.95-1.26,6.29-5.23a17.25,17.25,0,0,0-.26-4,1.62,1.62,0,0,0-1.17-1,5,5,0,0,0-1.74.45,8.25,8.25,0,0,0,.56,1.36c.53.84.53,2.56-.22,3.14-1.34,1-2.81,1.91-4.55,1.24a2.58,2.58,0,0,1-1.22-1.16c-.93-1.81-.46-3.58.22-5.36.83-2.21,2-2.9,3.92-2.22a1.11,1.11,0,0,1,.74-.61,1.72,1.72,0,0,1,1.44.48.91.91,0,0,1,.13.16c2.28,0,4.42.78,5.51,2.86a3,3,0,0,1,1.2,2.74,4.33,4.33,0,0,0,.34,1.42,10.39,10.39,0,0,1-1.59,6.74.55.55,0,0,1-.11.49,4.62,4.62,0,0,1-.29.4,1.76,1.76,0,0,1-.54.41c-1,.4-1.94.77-2.93,1.1a.71.71,0,0,1-.44.36,8,8,0,0,1-2,.29,5.72,5.72,0,0,1-2,0,7.64,7.64,0,0,1-6.56-1,.85.85,0,0,1-.38.09c-.44-.24-.86-.49-1.28-.75l-.45-.29-.14-.08-.13-.08a18,18,0,0,1-1.7-1.46,5.26,5.26,0,0,1-2-3.87,5.47,5.47,0,0,0-.17-1.05c-.22-.9-.49-1.78-.66-2.69a3.36,3.36,0,0,1,0-1.48,8.56,8.56,0,0,0,.28-2.75,3.1,3.1,0,0,1,.47-1.83A3.14,3.14,0,0,0,138,73.3a6.24,6.24,0,0,1,1.41-3c.41-.53.75-1.11,1.13-1.67.54-.78.76-1.76,1.54-2.39A13.42,13.42,0,0,0,143.43,65a1.2,1.2,0,0,1,1.24-.39,3.9,3.9,0,0,0,2.41-.19c.13-.05.28-.06.42-.1.88-.24,1.77-.51,2.66-.73a2.5,2.5,0,0,1,1.14-.11,30.87,30.87,0,0,0,6.14.67c.89,0,1.88,0,2.46,1-.13,1.06.1,1.44,1.1,1.85.13,0,.27.08.4.14.91.38,1.85.72,2.72,1.18a8.33,8.33,0,0,1,3,2.64,11,11,0,0,1,1.78,2.89,1.34,1.34,0,0,0,.89.87,1,1,0,0,1,.66.88c.33,1.74.67,3.49,1,5.23a1.7,1.7,0,0,0,.31.77,1.43,1.43,0,0,1,.32,1,10.17,10.17,0,0,0,.11,1.92,3.34,3.34,0,0,1-.48,2.63,2.62,2.62,0,0,0-.44,1.39,3.66,3.66,0,0,1-1,2.82c-.24.27-.45.56-.68.83a4.6,4.6,0,0,0-1.15,2.7,4.81,4.81,0,0,1-1.27,3,7.62,7.62,0,0,0-.66.84,18.72,18.72,0,0,1-3.49,4.14c-.36.76-1.1.84-1.79,1-1.22.25-2.46.43-3.66.74a13.6,13.6,0,0,0-3.22,1.1,9.68,9.68,0,0,1-4.28,1.19A2.48,2.48,0,0,0,149,107a2.84,2.84,0,0,1-2.37,0c-1-.28-1.86-.7-2.79-1.05a6.24,6.24,0,0,0-3.24-.37,3.14,3.14,0,0,1-3-1,1.18,1.18,0,0,0-.59-.43,6.53,6.53,0,0,1-1.58-.86,11.58,11.58,0,0,0-1.63-.78,2.6,2.6,0,0,1-1.79-1.68c-.17-.54-.49-1-.65-1.58a3.46,3.46,0,0,0-1.15-1.75,10.85,10.85,0,0,1-.86-.8A9.15,9.15,0,0,0,127,94.9a2.6,2.6,0,0,1-1-.93,20.64,20.64,0,0,1-1.47-2.84c-.4-1-.63-2-1-3.06A5.68,5.68,0,0,0,123,86.8a3.57,3.57,0,0,1-.53-1.6,11.32,11.32,0,0,0-.14-1.17,2.49,2.49,0,0,1,.18-2.25.67.67,0,0,0,.07-.41c.07-1,.13-1.91.19-2.87a10.84,10.84,0,0,1,.09-1.27c.13-.88.3-1.75.46-2.63a7.72,7.72,0,0,0-.18-3.7,3.18,3.18,0,0,1,.2-2.25,20.68,20.68,0,0,0,1-3.35,2,2,0,0,1,.52-1.11c.4-.4.74-.85,1.12-1.27a20.69,20.69,0,0,0,1.85-2.72,1.31,1.31,0,0,1,1-.69,5.34,5.34,0,0,0,2.34-1,4.83,4.83,0,0,1,1.36-.57,3,3,0,0,0,1.85-1.5c.17-.31.3-.64.46-1a2.87,2.87,0,0,1,1.62-1.74.57.57,0,0,0,.3-.27,1.81,1.81,0,0,1,1.64-1.17,1.16,1.16,0,0,0,.48-.22A19.83,19.83,0,0,0,142,50a1.8,1.8,0,0,1,.85-.39c1.22-.23,2.45-.43,3.68-.62a9.24,9.24,0,0,1,3.19-.05H150c1.27.1,2.54.19,3.82.31s2.32.27,3.48.35c.93.06,1.86,0,2.78.06a1.42,1.42,0,0,1,1.24.66,5.15,5.15,0,0,0,1.46,1.37,22.65,22.65,0,0,0,3,1.47,39.1,39.1,0,0,1,6,2.74,1,1,0,0,0,.28.14c.75.17,1,.74,1.12,1.4a8.59,8.59,0,0,0,.49,1.51,7.08,7.08,0,0,0,2.78,2.73,4,4,0,0,1,1,.93,14.06,14.06,0,0,0,1.9,2.16,2.73,2.73,0,0,1,1,1.57,10.35,10.35,0,0,0,2,4.34,2.57,2.57,0,0,1,.36.65c.33.71.61,1.44,1,2.14a4.91,4.91,0,0,1,.41,3.53c-.15.58-.23,1.18-.36,1.77a.78.78,0,0,0,.18.8c.39.35.28.75.16,1.18-.27,1-.51,2-.8,3a4.61,4.61,0,0,0,.57,4,1.38,1.38,0,0,1,.23.8,4.14,4.14,0,0,1-.34,1.66,5.58,5.58,0,0,0-.56,2.14,14.88,14.88,0,0,1-2.52,6,24.87,24.87,0,0,0-1.86,3.34,7.27,7.27,0,0,1-2.5,3.58,28.31,28.31,0,0,0-3.61,3.32,26.53,26.53,0,0,1-4.32,4,8.48,8.48,0,0,1-2.81,1.47,13.06,13.06,0,0,0-5.72,3,4.32,4.32,0,0,1-2.81,1.32,3.46,3.46,0,0,0-.62.14l-1.14.23c-.59.1-1.2.14-1.78.29-1.07.27-2.13.59-3.19.91a2.05,2.05,0,0,1-1.25,0c-1.3-.37-2.62-.69-3.93-1a3.41,3.41,0,0,0-.85-.07c-1,0-2,.06-3,.11a4,4,0,0,0-1,.18,2.88,2.88,0,0,1-2.71-.32,25.81,25.81,0,0,1-4.21-2.9l-.09,0c-1.36-.62-2.73-1.22-4.08-1.86a9.38,9.38,0,0,1-1.68-.91c-1.21-.87-2.37-1.82-3.56-2.71A1.58,1.58,0,0,0,123,110a2.57,2.57,0,0,1-1.35-.58,4.65,4.65,0,0,0-1.41-.7,2.56,2.56,0,0,1-1.74-1.12,6.14,6.14,0,0,0-.42-.47L116.43,105l-1.79-2.38c-.14-.19-.37-.41-.37-.61a3,3,0,0,0-1.57-2.4,2.11,2.11,0,0,1-.62-.83c-.74-1.35-1.07-2.85-1.71-4.24a6.54,6.54,0,0,1-.56-1.72,14.79,14.79,0,0,1-.32-4.35,6.15,6.15,0,0,0,0-1,15.86,15.86,0,0,1,.12-3.3,9.18,9.18,0,0,0,0-1.48c0-1.06,0-2.13.07-3.19a1,1,0,0,1,.17-.5,6.64,6.64,0,0,0,.91-2.59,5.34,5.34,0,0,0-.23-3c-.19-.65-.38-1.3-.54-1.95a8.67,8.67,0,0,0-.23-1.15,1.7,1.7,0,0,1,.08-1.43l.47-1.08a3,3,0,0,1,1.21-1.45,2.35,2.35,0,0,0,1.18-1.54,4.45,4.45,0,0,1,.57-1.26,5.53,5.53,0,0,0,.63-1.79c.13-.73.26-1.58,1.21-1.85.15,0,.3-.3.35-.49a12.92,12.92,0,0,1,2.33-4,11,11,0,0,0,1.67-3.42,2.27,2.27,0,0,1,.88-1.29,7,7,0,0,0,.8-.83,17.76,17.76,0,0,1,2.28-2.07c.88-.56,1.58-1.45,2.7-1.63a9.82,9.82,0,0,1,2.58-1.46q2.1-1,4.17-2.15c1.32-.7,2.81-1,4.08-1.84a9.09,9.09,0,0,1,.91-.54,6,6,0,0,1,1.34-.61,7.65,7.65,0,0,1,2.78-.62,33,33,0,0,1,3.46-1.35c.45-.14.9-.36,1.36-.54a5.86,5.86,0,0,1,3.85-.21,4.51,4.51,0,0,0,.53.08c1,.16,2.11.31,3.16.51a51.51,51.51,0,0,0,6.89.77c.92,0,1.84-.1,2.77-.14a7,7,0,0,1,1.88,0,7.06,7.06,0,0,1,2.55.61,1.75,1.75,0,0,0,.73.18,33,33,0,0,1,5.71,1.31,2.94,2.94,0,0,1,1.53.92c.59.71,1.19,1.42,1.84,2.07a14,14,0,0,0,1.44,1.09,3.2,3.2,0,0,1,.52.36,13,13,0,0,1,2.36,2.87,2.73,2.73,0,0,0,.37.52c1.31,1.55,2.62,3.1,3.94,4.63a1.34,1.34,0,0,0,.57.47c.68.2.91.75,1.13,1.32.43,1.12.89,2.24,1.28,3.39.48,1.39,1.4,2.54,2,3.87.46,1,1,2,1.4,3.1a21.53,21.53,0,0,0,1.85,4.5,1.12,1.12,0,0,1,.14.4c.23,1.19.45,2.37.67,3.56.36,2,.68,4,1.09,6a6.8,6.8,0,0,1,.09,2.54c-.26,1.61-.54,3.22-.79,4.83a7.37,7.37,0,0,0,0,1.15,1.48,1.48,0,0,1-.54,1.42,2.4,2.4,0,0,0-.53.77c-.21.33-.4.67-.58,1-.42.78-.87,1.55-1.24,2.35-.24.54-.3,1.17-.56,1.72a5.65,5.65,0,0,0-.37,3.62,2.12,2.12,0,0,1-.62,2,3.54,3.54,0,0,1-.82.67,5.89,5.89,0,0,0-1.89,1.86q-1.44,2.33-2.83,4.66a1.71,1.71,0,0,0-.16,1.9c-.37.32-1,.33-.94,1,0,.15-.47.27-.64.48-1.16,1.39-2.29,2.81-3.44,4.21a11.76,11.76,0,0,1-1.55,1.75,23.79,23.79,0,0,1-3.74,2.44,6.47,6.47,0,0,0-2.87,2.31,4,4,0,0,1-.67.82,1.5,1.5,0,0,1-.6.41c-.61.17-1.24.27-1.86.42a1.55,1.55,0,0,0-.68.29,4.17,4.17,0,0,1-2.08,1,1.53,1.53,0,0,0-.59.24,2.78,2.78,0,0,1-1.71.65c0,.2.08.39.11.59a33.12,33.12,0,0,0,5.61-.32c1.49-.27,3-.62,4.42-1l.23-.24a3.32,3.32,0,0,1,1.42-1.09,16.38,16.38,0,0,0,3.64-1.78,10.56,10.56,0,0,0,3.57-3,36.57,36.57,0,0,1,4.32-6,3.87,3.87,0,0,0,.64-.85c.24-.43.42-.89.65-1.33a3.9,3.9,0,0,1,.42-.71c.52-.67,1.08-1.32,1.61-2a10.14,10.14,0,0,1,.87-1.07,4.86,4.86,0,0,0,1.13-1.8c.27-.65.5-1.32.73-2s.54-1.62.83-2.42.36-1.63,1-2.09a5.54,5.54,0,0,0,1.68-2.42,27.26,27.26,0,0,0,1.66-4.72,10.68,10.68,0,0,0,.42-4.32,2.62,2.62,0,0,1,.12-.94,10.09,10.09,0,0,0,0-4.54,2,2,0,0,1,0-.93,10.22,10.22,0,0,0,.35-2.53,16.38,16.38,0,0,1,.23-3A12.59,12.59,0,0,0,200.58,71.9Zm-63.3-23.54-.44,0a2,2,0,0,1,.06-.24,2,2,0,0,1,.41.07Z" transform="translate(-11.45 -8.67)"/><path class="cls-1" d="M213.5,82.5a18.53,18.53,0,0,0-.39-3.59,4.2,4.2,0,0,1,0-2.58,5.93,5.93,0,0,0,.2-3.16,6.3,6.3,0,0,1-.1-2.12,2.25,2.25,0,0,0-1.18-2.4,1.9,1.9,0,0,1-.91-1.38,2.81,2.81,0,0,0-.26-.91,5.39,5.39,0,0,1-.63-2.78,3.36,3.36,0,0,0-.07-.95,40,40,0,0,0-2.64-7.09,2.56,2.56,0,0,1-.22-1,11.28,11.28,0,0,0-.27-2.1,15.2,15.2,0,0,0-1.8-3.85,33.52,33.52,0,0,0-4-5A1.49,1.49,0,0,0,200,43c-.15,0-.31-.17-.5-.28.87-.72.94-1,.43-1.84a7.78,7.78,0,0,0-1.78-2.37,7.3,7.3,0,0,1-.65-.71,1.32,1.32,0,0,1-.45-1.14,1.52,1.52,0,0,0-.44-1.16,5.85,5.85,0,0,0-2.13-1.57c-.54-.24-1-.44-.72-1.16,0-.15-.11-.41-.23-.56a6,6,0,0,0-.78-.73c-.33-.27-.7-.49-1-.78a11.47,11.47,0,0,1-1.3-1.4,8.45,8.45,0,0,0-2.19-2.11,7.34,7.34,0,0,0-1.52-1,11.57,11.57,0,0,0-3.48-1,2,2,0,0,1-.82-.22,7.19,7.19,0,0,0-2.67-.62,10.48,10.48,0,0,1-4-1.07,16.39,16.39,0,0,0-1.62-.82A29.22,29.22,0,0,0,170,20.79c-.62-.16-1.23-.34-1.83-.55a10.52,10.52,0,0,0-2.65-.79,4,4,0,0,1-1.23-.29,8.12,8.12,0,0,0-3.12-.59c-1,0-2.07-.07-3.1-.12a10.25,10.25,0,0,0-4.12.4,27.2,27.2,0,0,0-3,1.39,3.77,3.77,0,0,1-1.69.53c-1,0-2.05.19-3.07.31a2.62,2.62,0,0,0-1.31.41,2.09,2.09,0,0,1-1.1.3c-1,0-2-.08-3-.16a14.73,14.73,0,0,0-4.61.74,1.52,1.52,0,0,0-.56.3,3.64,3.64,0,0,1-1.68.64c-.9.19-1.8.4-2.69.63s-1.64.49-2.46.73a8.16,8.16,0,0,0-2.22,1,11.31,11.31,0,0,0-2.35,2.44,3.15,3.15,0,0,1-1.43,1c-.86.32-1.72.67-2.59,1a6.44,6.44,0,0,0-2.54,1.7,4,4,0,0,1-2.31,1.45A5.53,5.53,0,0,0,112,35.37a2.16,2.16,0,0,0-.73,1.54,11.79,11.79,0,0,0-1.08,1c-.69.78-1.31,1.61-2,2.37-1,1.08-2,2.12-3,3.17a2.83,2.83,0,0,0-.85,1.33,5.62,5.62,0,0,1-2.23,3.42A10.4,10.4,0,0,0,100,50.8,7.61,7.61,0,0,0,98.73,55a2.24,2.24,0,0,1-.3,1c-.53,1-1.15,2-1.64,3a8.24,8.24,0,0,0-1.15,3c-.11,1.49-.19,3-.25,4.47a4.54,4.54,0,0,1-.53,1.94,3.34,3.34,0,0,0-.5,1.39,13.57,13.57,0,0,1-.49,3.36c-.08.27,0,.57-.09.85-.14.62-.31,1.23-.49,1.84s-.38.92-.48,1.4a8.5,8.5,0,0,0-.08,3.18c.11.58.38,1.18-.09,1.74-.06.09,0,.28,0,.42.07.46.11.92.22,1.36a1.41,1.41,0,0,1-.11,1.14,4.72,4.72,0,0,0-.37,3.42,10.71,10.71,0,0,0,.22,1.26,9.21,9.21,0,0,0,1.57,3.46,1.7,1.7,0,0,1,.36.64,29.4,29.4,0,0,1,.76,3.54,7.54,7.54,0,0,0,.83,2.73,12,12,0,0,1,1,2.44,11.28,11.28,0,0,0,1.23,3c1,1.52,2.13,2.92,3.21,4.37a1.7,1.7,0,0,0,.22.24,20.25,20.25,0,0,1,3.6,4.18c.48.65,1,1.27,1.55,1.89.79.91,1.73,1.68,2.45,2.67a3,3,0,0,0,1.73,1.18,2.78,2.78,0,0,1,1.44,1.06l2.06,2.44a4.5,4.5,0,0,0,1.69,1.26c.74.33,1.46.72,2.17,1.12s1.67,1,2.51,1.5a20.43,20.43,0,0,1,3.9.29c.11,0,.35.11.67.22a9.15,9.15,0,0,0,.4-1c-.19-.19-.41-.35-.61-.54-.65-.63-1.47-1.08-1.85-2a1.66,1.66,0,0,0-1.18-.86c-.48-.14-1-.27-1.45-.37a2.61,2.61,0,0,1-1.39-.73,6.62,6.62,0,0,0-1.41-1.12,4.72,4.72,0,0,1-1.3-1.09c-.4-.45-.81-.89-1.25-1.31a1.46,1.46,0,0,1-.47-.8,11.76,11.76,0,0,0-.44-1.54,2,2,0,0,0-.5-.8c-.53-.47-1.11-.89-1.67-1.32-.31-.24-.65-.44-1-.69-1.24-1-2.48-2-3.71-3a1.39,1.39,0,0,1-.36-.5,8.63,8.63,0,0,1-.44-1.2,6.23,6.23,0,0,0-2-3.24,7.25,7.25,0,0,1-2.21-3.34c-.4-1.22-.79-2.43-1.17-3.65s-.74-2.53-1.13-3.78a.72.72,0,0,0-.28-.42c-.52-.26-.62-.76-.75-1.23-.3-1.05-.24-2.19-.89-3.14a1.11,1.11,0,0,1-.14-.51c-.1-.71-.16-1.42-.28-2.12a20.74,20.74,0,0,0-.71-3.54,5,5,0,0,1-.13-2.82,12.62,12.62,0,0,0,.08-2.53,8,8,0,0,0-.29-2.44,1.09,1.09,0,0,1,.23-1.17,9.84,9.84,0,0,0,2.19-3.86,6.14,6.14,0,0,0,0-4.08c-.12-.33-.23-.67-.34-1,.14-.34.23-.64.37-.93a11.8,11.8,0,0,1,1.22-2.24,2.47,2.47,0,0,0,.68-1.65c1-.59,1-.61.84-1.31l-.37.17-.05-.11c.14-.32.3-.64.42-1s.2-.52.12-.71c-.22-.51,0-.89.19-1.32a24.65,24.65,0,0,0,1.52-3.4c.18-.84.44-1.65.67-2.48a3.77,3.77,0,0,1,1.86-2.41c-.1-.74-.11-.77.44-1,.31-.14.61-.21.52-.66a.75.75,0,0,1-.5-.39c.32-.13.58-.22.83-.34a1.75,1.75,0,0,0,.62-.38c.32-.37.57-.81.86-1.21a2.51,2.51,0,0,1,.38-.48c.32-.28.66-.53,1-.81.48-.43.93-.88,1.4-1.32s.94-.86,1.36-1.34a17.67,17.67,0,0,1,2.59-2.67,1.71,1.71,0,0,0,.43-.46,3.78,3.78,0,0,1,1.74-1.37,5,5,0,0,0,.94-.49c.66-.48,1.27-1,1.94-1.48a3.46,3.46,0,0,1,1.25-.57,6.87,6.87,0,0,0,4.11-2.44c.09-.11.16-.26.28-.33,1.38-.77,2.48-2,4.12-2.36a1.06,1.06,0,0,0,.48-.22c.37-.33,1-.09,1.27-.63.45.33.77-.16,1.16-.2.07,0,.14,0,.21,0a11.67,11.67,0,0,0,1.46-.22c1.1-.28,2.2-.59,3.29-.9a1.62,1.62,0,0,0,.61-.18c.92-.78,2.13-.91,3.17-1.45a3.37,3.37,0,0,1,2.29-.23,5.48,5.48,0,0,0,2.21,0,3.28,3.28,0,0,1,1.86-.13,2,2,0,0,0,.64,0,25.7,25.7,0,0,0,4.84-.78,2.72,2.72,0,0,1,1.35-.08,7.82,7.82,0,0,0,2.84.28c.58,0,1.13-.06,1.52.52.12.18.42.26.65.35a8.64,8.64,0,0,0,2.81.58c1.88.06,3.77.11,5.65.2a7.76,7.76,0,0,1,1.78.33,12.93,12.93,0,0,1,2,.73,4.83,4.83,0,0,0,2.59.46,5.21,5.21,0,0,1,2.45.62,1.46,1.46,0,0,1,.59.59,5.52,5.52,0,0,0,3.8,2.82c.55.11,1.11.25,1.66.4a1.9,1.9,0,0,1,.65.33c.77.69,1.53,1.38,2.28,2.1,1.1,1.06,2.13,2.2,3.28,3.2a8.51,8.51,0,0,1,2.22,2.52,7.63,7.63,0,0,0,1.1,1.43L195,42c.15.09.27.26.42.32A2.78,2.78,0,0,1,197,44.4a2.68,2.68,0,0,0,.7,1.29,5.32,5.32,0,0,1,.64.84c.92,1.44,1.86,2.86,2.74,4.32a35.52,35.52,0,0,1,2.31,3.84,11.18,11.18,0,0,0,.85,1.34,4.83,4.83,0,0,1,.57,1c.43,1.39.85,2.79,1.2,4.2a3.62,3.62,0,0,1,0,1.57,7,7,0,0,0,.26,3.68c.58,1.87,1.35,3.67,2.06,5.5a1.6,1.6,0,0,1,.05,1.14,10,10,0,0,0-.24,5,20.88,20.88,0,0,1,.27,2.23,27.92,27.92,0,0,1-.06,3.3,31.69,31.69,0,0,0-.58,3.35.7.7,0,0,1-.11.41c-.68.88-.7,2-1.19,3-.55,1.08-.49,2.29-1,3.38a1.63,1.63,0,0,0-.06.63c0,1.07,0,2.14,0,3.21a2.35,2.35,0,0,1-.58,1.77,1.26,1.26,0,0,0-.32.53c-.4,1.4-.7,2.82-1.23,4.19-.4,1-.61,2.11-.95,3.15-.15.43-.48.79-.63,1.21s-.19,1-.34,1.45a4.93,4.93,0,0,1-.52.92,13.77,13.77,0,0,0-1,1.71,4.54,4.54,0,0,1-1.13,1.66c-.71.64-1.44,1.26-2.2,1.85a3.4,3.4,0,0,0-.86,1.06,29.4,29.4,0,0,1-1.77,2.76,2.39,2.39,0,0,1-1.06.86,11.06,11.06,0,0,0-2.93,2.08,2.38,2.38,0,0,0-1.18,1.82c0,.41-.37.57-.65.79a4.31,4.31,0,0,0-1,.81,3.13,3.13,0,0,1-1,.9c-.55.33-1.1.66-1.63,1a2.41,2.41,0,0,0-.56.49.46.46,0,0,0,.17.72l.59.16a12.54,12.54,0,0,0,3.6-.8l1-.62a6.11,6.11,0,0,1,2.8-1.23,2.48,2.48,0,0,0,1.94-1.19,2.6,2.6,0,0,1,.55-.49,5.41,5.41,0,0,0,.75-.59,19.33,19.33,0,0,0,2.38-3,15.43,15.43,0,0,1,1.53-1.91c.29-.35.66-.64.93-1a25.75,25.75,0,0,1,3.06-3.53,8.91,8.91,0,0,0,2-2.74,6.57,6.57,0,0,0,.83-3,2.73,2.73,0,0,1,.17-.93,14.32,14.32,0,0,0,.88-2.61c.28-2.11,1.76-3.63,2.46-5.52a10.28,10.28,0,0,0,1.69-4.11,5.6,5.6,0,0,0,0-3.68.83.83,0,0,1,.26-1,6.13,6.13,0,0,0,1.74-3.58c.05-.39.18-.76.22-1.15.09-.81.18-1.62.2-2.44A15.58,15.58,0,0,0,213.5,82.5Z" transform="translate(-11.45 -8.67)"/><path class="cls-1" d="M148.49,9.26a2.33,2.33,0,0,0-.91-.3c-1-.06-2-.07-3-.1a5.89,5.89,0,0,1-1.26-.08,3.17,3.17,0,0,0-2.9.63,3,3,0,0,1-.93.47c-.71.24-1.45.38-2.13.68a3.58,3.58,0,0,1-1.32.34,6.89,6.89,0,0,0-3.54,1,5.14,5.14,0,0,1-1.27.55c-1.18.35-2.38.66-3.58,1a27.85,27.85,0,0,0-5.41,1.92,2.13,2.13,0,0,1-.92.24,17.53,17.53,0,0,0-4.49.89,4.66,4.66,0,0,0-1.53.93c-.89.72-1.67,1.55-2.59,2.22s-2,1.33-2.94,2.09c-1.49,1.2-3.11,2.25-4.68,3.36a4.59,4.59,0,0,1-.81.51,3.65,3.65,0,0,0-1.89,1.8,7.5,7.5,0,0,1-2.12,2.63,9.51,9.51,0,0,0-1.58,1.59,9,9,0,0,1-1.93,1.81,3,3,0,0,0-1.42,2.72,1.6,1.6,0,0,1-.14.93A8.88,8.88,0,0,1,93,39.92a8.25,8.25,0,0,0-2.36,2.59,2.62,2.62,0,0,1-.71.77A2.83,2.83,0,0,0,88.5,46a2.8,2.8,0,0,1-.5,1.6,8.5,8.5,0,0,0-1,2,21.63,21.63,0,0,0-.91,3.94,8.39,8.39,0,0,1-.86,2.79,18.69,18.69,0,0,0-1.89,7,1.93,1.93,0,0,1,0,.42c-.47,1.45-.95,2.89-1.42,4.34a4.52,4.52,0,0,0-.27,1,50.32,50.32,0,0,0-.42,6.5A7.79,7.79,0,0,1,81,77.13c-.13.84-.37,1.67-.43,2.52-.15,1.92-.22,3.84-.3,5.76a1.93,1.93,0,0,0,.13.83,12.26,12.26,0,0,1,1.1,5.17,9.28,9.28,0,0,0,1.12,4.73,4.41,4.41,0,0,1,.55,2.15,5.16,5.16,0,0,0,.65,2.77,2.8,2.8,0,0,1,.26.7,1.09,1.09,0,0,0,.81.91,1.32,1.32,0,0,1,.85.73c.35.66.75,1.3,1.1,2a3.3,3.3,0,0,1,.33.89,8.77,8.77,0,0,0,2.23,4.19,7.4,7.4,0,0,1,1,1.5c.65,1.22,1.29,2.45,2,3.65a2.84,2.84,0,0,0,.84,1,6.27,6.27,0,0,1,1.66,1.93,36.32,36.32,0,0,0,2.72,3.94,21.58,21.58,0,0,0,2.74,2.83,8.53,8.53,0,0,1,1.8,2,6.55,6.55,0,0,0,3.29,2.76,9.78,9.78,0,0,1,2.91,1.86l.06,0a.64.64,0,0,1,.53.07,1.84,1.84,0,0,0,.57.2,1.77,1.77,0,0,0,1-1.68,10.18,10.18,0,0,1-3-3.91,3.76,3.76,0,0,0-.81-.5,1.49,1.49,0,0,1-1-1l-.63.08a5,5,0,0,0-3.21-3.38,1.13,1.13,0,0,1-.8-.91c-.18-.77-.63-1.44-.87-2.16-.41-1.24-1.42-1.91-2.16-2.84a3.24,3.24,0,0,0-.57-.47c-.4-.3-.84-.56-1.2-.89A7.69,7.69,0,0,1,94,111.23a10.62,10.62,0,0,0-1.53-3.16,1.68,1.68,0,0,1-.23-.9,3.86,3.86,0,0,0-1.48-3,10.25,10.25,0,0,0-1-.65,1.34,1.34,0,0,1-.7-1.61,2.89,2.89,0,0,0,0-1.57c-.21-.87-.4-1.74-.6-2.6-.31-1.31-.58-2.63-1-3.92a11.57,11.57,0,0,0-.89-1.8c-.74-.25-.84-.84-.91-1.52a5.44,5.44,0,0,1,0-1.8,9.74,9.74,0,0,0,.22-2,30.58,30.58,0,0,0-.35-6.48,8,8,0,0,1-.23-1.68,9,9,0,0,1,.12-2.44,36.24,36.24,0,0,0,.79-5.27,7,7,0,0,1,.49-2.59,17.44,17.44,0,0,0,1.14-2.76c.38-1.29.59-2.62.94-3.92a1.34,1.34,0,0,0-.36-1.55A25.25,25.25,0,0,1,90.14,57a12,12,0,0,0,2.4-6.18,5.91,5.91,0,0,1,.73-2.31,9.26,9.26,0,0,0,1.15-2.63,1.64,1.64,0,0,1,1.08-1.19A4.28,4.28,0,0,0,98,42.58a1.44,1.44,0,0,1,.28-.44,5.66,5.66,0,0,0,1.29-2.66,2.6,2.6,0,0,1,.88-1.43,4.05,4.05,0,0,0,.68-.8c.3-.44.58-.9.87-1.34l2-3.13a4.74,4.74,0,0,1,.4-.49A10.26,10.26,0,0,1,107,30.17,30.08,30.08,0,0,0,112.57,26c.8-.7,1.55-1.48,2.42-2.1a40.26,40.26,0,0,1,3.44-2.13,7.21,7.21,0,0,1,1.94-.88c2-.48,3.79-1.61,5.79-2.13a4.16,4.16,0,0,0,.47-.24c1.53-.6,3-1.23,4.58-1.76s3.06-.94,4.6-1.39a9.51,9.51,0,0,1,2-.48,5.14,5.14,0,0,0,3.15-1.41c.22-.18.46-.34.66-.54a2.62,2.62,0,0,1,1.95-.71c.72,0,1.43,0,2.14,0a6.48,6.48,0,0,0,2.86-.82A1.19,1.19,0,0,0,148.49,9.26Z" transform="translate(-11.45 -8.67)"/><path class="cls-1" d="M226.64,87.57a9.73,9.73,0,0,0-.9-3.83,1.38,1.38,0,0,1,0-1.51,1.79,1.79,0,0,0,.3-.89c0-1,.36-2-.12-3a3,3,0,0,1-.07-.53,9.84,9.84,0,0,0-.51-1.62,2,2,0,0,1-.18-1.53,12.52,12.52,0,0,0-.34-5.8c-.08-.38-.21-.75-.29-1.13-.16-.8-.32-1.6-.46-2.41a8.49,8.49,0,0,1-.22-1.65,15.3,15.3,0,0,0-.24-4.77,7.79,7.79,0,0,0-1.49-3.25,1.79,1.79,0,0,1-.35-.75,12.91,12.91,0,0,0-1.27-3.16,11.45,11.45,0,0,0-.75-1c-.18-.25-.45-.5-.48-.78A8.86,8.86,0,0,0,218,46.56c-.59-1-1.18-2-1.75-2.94A2.45,2.45,0,0,1,216,43a9.73,9.73,0,0,0-.39-1.3c-.43-.94-.92-1.84-1.39-2.76a.89.89,0,0,0-.25-.34A5.65,5.65,0,0,1,212.64,37a8.1,8.1,0,0,0-2.33-2.58,4.29,4.29,0,0,1-1-1,1,1,0,0,1-.29-.54,4.2,4.2,0,0,0-1.28-2.17,13.39,13.39,0,0,1-1.12-1.27,23.74,23.74,0,0,0-3.86-4.39,6.47,6.47,0,0,0-2.12-1.4,7.16,7.16,0,0,1-1.57-.58A7.72,7.72,0,0,1,198,21.78c-.59-.67-1.19-1.32-1.81-2a3.85,3.85,0,0,0-1.73-1.2,3.34,3.34,0,0,1-.72-.43,8.71,8.71,0,0,0-1.94-1.09,19.27,19.27,0,0,1-4-1.73,14.66,14.66,0,0,0-5.37-1.57,6.52,6.52,0,0,1-2.82-.86,15.74,15.74,0,0,0-6.15-2.28c-1.37-.18-2.71-.52-4.1-.62a34.86,34.86,0,0,1-4-.57c-1.3-.26-2.66-.32-4-.63a1,1,0,0,0-.63.06,8,8,0,0,1-4.21.19,4.22,4.22,0,0,0-2.54.85c-.19.1-.3.4-.4.62a.79.79,0,0,0,.47,1.13,4.52,4.52,0,0,0,.73.16l1.07.31c.15-.15.3-.44.48-.45.95,0,1.9,0,2.86,0,.78,0,1.56.1,2.34.17,1.17.11,2.34.22,3.5.37s2.53.4,3.8.55a1.07,1.07,0,0,1,1,.75.78.78,0,0,0,1,.54,3,3,0,0,1,2,.31c.28.14.59.24.88.37s.84.39,1.3,0c.12-.09.41,0,.6,0,1.56.49,3.11,1,4.67,1.51a2.13,2.13,0,0,1,.49.21,8.08,8.08,0,0,0,2.54,1,14.4,14.4,0,0,1,4.32,1.78c1.52,1,3.11,1.87,4.65,2.83a2.84,2.84,0,0,1,.92.87,7.37,7.37,0,0,0,2.68,2.22,3.48,3.48,0,0,1,1.08.82c.25.34.52.68.79,1a1.92,1.92,0,0,0,1.2.83,1.45,1.45,0,0,1,.67.45c.2.19.33.46.53.66,1,.95,1.9,1.92,2.9,2.81a8.27,8.27,0,0,1,2.06,2.27,2.77,2.77,0,0,0,.57.62L208,37a10.92,10.92,0,0,0,1.78,1.68,1.82,1.82,0,0,1,.87,1.51,5.23,5.23,0,0,0,.39,1.65,20.11,20.11,0,0,0,2.14,4,15.28,15.28,0,0,1,2,3.4c.42,1.12.91,2.24,1.38,3.34a38.25,38.25,0,0,1,1.31,4.49,9,9,0,0,0,1.51,3.36,2,2,0,0,1,.52,2.07,2.39,2.39,0,0,0,0,1c.06.74.12,1.48.22,2.22s.2,1.27.33,1.89c.24,1.12.51,2.22.75,3.33a11,11,0,0,0,.49,2.18,3.23,3.23,0,0,1,.19,2.07,12.65,12.65,0,0,0-.14,1.38,1.52,1.52,0,0,0,.42,1.17c.57.61.56.61.21,1.34-.16.32-.32.64-.47,1a3.71,3.71,0,0,0-.28,2.2c.16,1,.37,2,.55,2.89l-.38.34c.13.21.35.41.36.63a8.22,8.22,0,0,1-.14,3c-.3.9-.45,1.85-.67,2.78a19.78,19.78,0,0,1-.83,3.64,23.82,23.82,0,0,0-1,2.59,13.72,13.72,0,0,0-.72,3.87,1.5,1.5,0,0,1-.54,1.21,4.57,4.57,0,0,0-1.51,3.43,5.6,5.6,0,0,1-.85,2.6c-.19.3-.32.64-.53.93-.37.51-.76,1-1.16,1.49-.2.25-.49.43-.66.69-.73,1.14-1.44,2.29-2.14,3.44a3.74,3.74,0,0,1-1.23,1.3c-1,.61-1.89,1.26-2.84,1.9a1.5,1.5,0,0,0-.24.2c-.55.51-1.06,1-1.63,1.53a3.31,3.31,0,0,0-1.19,2,2.86,2.86,0,0,1-1,1.92,3.21,3.21,0,0,0-.46.71,4.19,4.19,0,0,1-1.76,1.8,1.47,1.47,0,0,0-.59.72,3.47,3.47,0,0,1-1.18,1.34c-.59.4-1.13.87-1.72,1.27a1,1,0,0,0-.48,1,28,28,0,0,0,4-.8,5.47,5.47,0,0,0,2.32-1.72h.86l-.2-.35s0-.06,0-.13l1.36-.48v-.5l1.2-.56a.86.86,0,0,1,.64-1,2,2,0,0,0,1.15-1.17,3.26,3.26,0,0,1,.83-1.22,7.91,7.91,0,0,0,2.17-2.44c.57-.9,1.16-1.78,1.71-2.6,1-.21,1.3-.28,1.61-.7a11.31,11.31,0,0,0,1.84-3.22,8.86,8.86,0,0,1,2.45-3.93,2.62,2.62,0,0,0,.66-1,26.69,26.69,0,0,0,1.64-5.06,1.87,1.87,0,0,1,.34-.76,4.86,4.86,0,0,0,1-3.3,2.34,2.34,0,0,1,.05-.84c.43-1.21.9-2.4,1.35-3.59,0-.07.09-.12.12-.18.32-.71.68-1.41.94-2.14a2.9,2.9,0,0,1,.73-1.27,1.36,1.36,0,0,0,.4-.93,12.45,12.45,0,0,1,.29-2.86A4.71,4.71,0,0,0,226.64,87.57Z" transform="translate(-11.45 -8.67)"/><path class="cls-1" d="M238.21,86.26a2.89,2.89,0,0,1-.28-.91,15.35,15.35,0,0,1-.19-3.25,5.38,5.38,0,0,0,0-2.33.87.87,0,0,1,0-.53,6.94,6.94,0,0,0,0-3.59c-.21-1.15-.41-2.31-.54-3.47a1.74,1.74,0,0,0-.53-1.11,3.56,3.56,0,0,1-1-3.11,7,7,0,0,0-1-4.71,1.57,1.57,0,0,1-.25-1.1,9.21,9.21,0,0,0-2.05-6.34,13.88,13.88,0,0,0-1.5-1.66,2.41,2.41,0,0,1-.81-1.57,2.71,2.71,0,0,0-1.37-2c-.35-.24-.62-.57-1-.82-.56-.43-1.13-.85-1.73-1.23a.71.71,0,0,0-.89.08.76.76,0,0,0-.25.87,1.18,1.18,0,0,0,.07.2c.55,1.23,1.09,2.48,1.67,3.7A2.13,2.13,0,0,0,228,54.5a.94.94,0,0,1,.66.75,19.56,19.56,0,0,0,.83,2.52c.55,1.31,1.17,2.59,1.76,3.89a4.87,4.87,0,0,0,.41,1,3.66,3.66,0,0,1,.59,1.8A18.68,18.68,0,0,1,232,69.2a9.42,9.42,0,0,0,.84,5.18,9.16,9.16,0,0,1,.95,2.93,5.86,5.86,0,0,0,.23,1.46,1.82,1.82,0,0,1,0,1.24,11.32,11.32,0,0,0-.45,4.33,41,41,0,0,1,.21,4.15,10.35,10.35,0,0,1-1.35,5.63,5,5,0,0,0-.75,2,39.76,39.76,0,0,1-.81,4.51,7.61,7.61,0,0,0-.11,1.07c-.08,1-.12,2.06-.25,3.08a16.7,16.7,0,0,1-1.53,4.17,16.28,16.28,0,0,1-1.07,1.84c-.14.24-.26.5-.38.76a8.67,8.67,0,0,1-2.4,3.35,4.64,4.64,0,0,0-1.75,2.11,1.27,1.27,0,0,1-.32.42,8.34,8.34,0,0,0-2,3.4,2.75,2.75,0,0,1-.83,1.21,12.85,12.85,0,0,0-2.35,2.31,1.67,1.67,0,0,1-.39.36,8.25,8.25,0,0,0-1.91,2c-.29.41-.64.77-1,1.16-.58.72-1.18,1.42-1.71,2.18a3.41,3.41,0,0,1-1.07,1c-1.08.68-2.13,1.42-3.17,2.16a1.46,1.46,0,0,0-.47.57.84.84,0,0,0-.09.43h0c2,.86,4.13,0,6-1a3.35,3.35,0,0,1,.56-.45,21.49,21.49,0,0,1,2.21-1.11.43.43,0,0,1,0,.07l.57-.32a1.31,1.31,0,0,1,1.08-1,3.77,3.77,0,0,0,2.21-1.56,21.54,21.54,0,0,0,2.44-3.75,3.06,3.06,0,0,1,.65-.83c.9-.85,1.81-1.7,2.74-2.52a2.43,2.43,0,0,1,.83-.43,2.88,2.88,0,0,0,1.67-1.41c.47-.84.92-1.68,1.4-2.51a1.4,1.4,0,0,1,.45-.56,2,2,0,0,0,.76-1,7,7,0,0,0,.47-2.17,16.54,16.54,0,0,1,.62-2.91,11.93,11.93,0,0,0,.62-2.25,5.77,5.77,0,0,1,.86-2.27,9.13,9.13,0,0,0,1.5-3.85,13.58,13.58,0,0,1,.47-1.74,22.53,22.53,0,0,0,1-4.13c.07-1.31.22-2.61.33-3.92a1.14,1.14,0,0,1,.39-.94,2.06,2.06,0,0,0,.68-1.62A8.19,8.19,0,0,0,238.21,86.26Z" transform="translate(-11.45 -8.67)"/><path class="cls-1" d="M90.46,130.8c.13,0,.21.23.31.39,1.68.58,3.25,1.55,4.92,2.12.21,0,.43,0,.64.06a1.5,1.5,0,0,0,.33-1.48c-.66-.71-1.24-1.48-1.83-2.24a1.43,1.43,0,0,0-1.16-.67,1.79,1.79,0,0,1-1.34-.78,3,3,0,0,1-.46-.71,3.28,3.28,0,0,0-1.1-1.29,5.67,5.67,0,0,1-.65-.56,8.66,8.66,0,0,0-2.33-1.83c-.23-.1-.34-.42-.54-.62s-.7-.67-1.06-1c-.8.06-1-.59-1.47-1.12a1.53,1.53,0,0,0,.17-1.89,4.73,4.73,0,0,0-.84-1.48,2.76,2.76,0,0,1-.43-.73c-.39-.76-.79-1.51-1.14-2.29a3.3,3.3,0,0,1-.32-1.22A4.12,4.12,0,0,0,81,110.78c-.82-.89-1.66-1.76-2.45-2.68-1.08-1.28-1.92-2.66-1.5-4.46a4.49,4.49,0,0,0,0-.74,3.21,3.21,0,0,0-.56-2c-.44-.73-.89-1.44-1.31-2.18a3.34,3.34,0,0,1-.3-.89c-.18-.79-.33-1.6-.49-2.4a5.4,5.4,0,0,1-.18-1c0-2.85-.06-5.7,0-8.55a6,6,0,0,0-.92-3.43,6.74,6.74,0,0,0-.42-.62,1.25,1.25,0,0,1-.24-1.2c0-.21.09-.42.14-.63.34-1.45.68-2.9,1-4.35a2.32,2.32,0,0,0,.06-.74,1.91,1.91,0,0,1,.37-1.5c-.13-.47-.23-.79-.3-1.12a4.35,4.35,0,0,0-.17-1,5,5,0,0,1-.23-2.5,4.53,4.53,0,0,1,1.14-2.91,4.54,4.54,0,0,0,1.11-3.36,14.22,14.22,0,0,1,.74-4.61c.13-.5.25-1.2,1.09-1.31-.38-.48-.17-.79.11-1.11a2.38,2.38,0,0,0,.55-.76,9.44,9.44,0,0,1,1.54-2.9l-.57-.14a8.34,8.34,0,0,0,.07-.85,4.06,4.06,0,0,0-.06-.85A1,1,0,0,0,77.85,49a2.58,2.58,0,0,0-.79.32A6.32,6.32,0,0,0,74.46,52a9.25,9.25,0,0,0-1.15,4,1.25,1.25,0,0,1-.43.93,3.17,3.17,0,0,0-.73,1.15,6.92,6.92,0,0,1-.93,1.79,4.39,4.39,0,0,0-.93,3.2c0,.42,0,.86,0,1.28a2.93,2.93,0,0,1-.46,1.81A6.21,6.21,0,0,0,69,71a7.49,7.49,0,0,1-.17,4.42,8.33,8.33,0,0,0-.47,3.47,20,20,0,0,1,.15,2.44c0,2-.09,4-.1,6a4.3,4.3,0,0,0,.7,2.43,2.15,2.15,0,0,1,.34,1.63,2.41,2.41,0,0,0,0,.53,37.18,37.18,0,0,0,.73,6,1.51,1.51,0,0,0,.19.6,4.51,4.51,0,0,1,.57,2.14c.16.84.27,1.68.4,2.52a4.46,4.46,0,0,0,1.3,2.51,4.78,4.78,0,0,1,1.24,2.19,13.39,13.39,0,0,0,1.51,3.28c.74,1.17,1.5,2.33,2.24,3.5a16.52,16.52,0,0,0,1.11,1.81,7.24,7.24,0,0,1,1.54,3,7.29,7.29,0,0,0,1.84,3.31,6.48,6.48,0,0,1,1.54,2.28,1.63,1.63,0,0,0,.43.59c.78.72,1.58,1.43,2.37,2.14s1.68,1.24,2.45,2A3.69,3.69,0,0,0,90.46,130.8Z" transform="translate(-11.45 -8.67)"/><path class="cls-1" d="M78.08,136.85a6.33,6.33,0,0,1,2.15.79.34.34,0,0,1,.17.28l.27,0a1.32,1.32,0,0,0,.58-.94,8.86,8.86,0,0,0-.19-2.62c-.11-.15-.21-.31-.31-.46a25.76,25.76,0,0,1-3-3.66l-.34-.57-.17-.12a2,2,0,0,1-.66-.68c-.75-1-1.48-2.09-2.21-3.14-1.06-1.56-2.1-3.13-3.17-4.68a2.37,2.37,0,0,0-1-.94,1.22,1.22,0,0,1-.72-.88,22.6,22.6,0,0,1-.55-2.57,13,13,0,0,0-1.45-5.1,22.05,22.05,0,0,1-1.83-3.59c-.15-.43-.3-.87-.48-1.29a3.24,3.24,0,0,0-.56-1,1.26,1.26,0,0,1-.37-1.16,11.28,11.28,0,0,0-.49-4.73c-.38-1.32-1-2.57-1.5-3.86a6.56,6.56,0,0,1-.78-2.74c.07-1.21.11-2.42.17-3.63a35.54,35.54,0,0,0-.47-8,1.53,1.53,0,0,1,.15-1c.37-.84.71-1.7,1-2.56s.62-1.59.93-2.38c.74-1.91.9-3.78-.46-5.56-.37.27-.71.51-1,.78a1,1,0,0,0-.25.34A21.31,21.31,0,0,0,60.33,74a8.68,8.68,0,0,1-.68,1.89,12.8,12.8,0,0,0-1.14,2.94,23.16,23.16,0,0,0-.65,3.78,14.07,14.07,0,0,1-.8,4A2.32,2.32,0,0,0,57,88.4a4.49,4.49,0,0,1,.14,1.47,8.9,8.9,0,0,0,.44,3.36,4,4,0,0,1,.17,1.15,6.39,6.39,0,0,0,.66,3.09,2.16,2.16,0,0,1,.2,1c.08,1.21.14,2.42.2,3.63A6.55,6.55,0,0,0,60,106a2.87,2.87,0,0,1,.23.6c.09.19.14.45.29.55.63.4.65,1.06.8,1.67a3,3,0,0,0,.23.93,9.22,9.22,0,0,1,1.09,3.08,17.22,17.22,0,0,1,.41,3,2.75,2.75,0,0,0,.71,2.05,1,1,0,0,1,.15.4c.29,1,.57,1.9.84,2.86.14.47.12,1.08.61,1.31a3.28,3.28,0,0,1,1.24,1.4,8,8,0,0,0,.76.89,5.88,5.88,0,0,1,.92,1.15,24,24,0,0,0,3.67,5.35,10.49,10.49,0,0,0,1.12,1.27,4,4,0,0,1,.68.68c.54.42,1.06.87,1.58,1.32s1.41,1.5,2.38,2.28Z" transform="translate(-11.45 -8.67)"/><path class="cls-1" d="M247.58,94.89c-.11-.88-.14-1.78-.22-2.68a6.53,6.53,0,0,1,.37-2.92.72.72,0,0,0-.11-.8,1.31,1.31,0,0,1-.23-1.39,4.39,4.39,0,0,0,.16-.95,1.07,1.07,0,0,0-.15-.7.93.93,0,0,1-.29-.92c.06-.35-.21-.59-.57-.65a.54.54,0,0,0-.65.42,2.87,2.87,0,0,0-.26,1.34,18.06,18.06,0,0,1,.14,2.32,13.22,13.22,0,0,1-.12,2.44,19.23,19.23,0,0,0-.41,3.47,6.37,6.37,0,0,1-.19,1.37c-.08.42-.19.83-.32,1.37a1.45,1.45,0,0,0-.85,1.13,7.79,7.79,0,0,1-1.63,3.56,8.12,8.12,0,0,0-1.5,4.6,19.07,19.07,0,0,1-.85,4,9.27,9.27,0,0,0-.38,1.44,2.5,2.5,0,0,1-.7,1.5,11.71,11.71,0,0,0-3,6.57,1.43,1.43,0,0,1-.09.41,12.07,12.07,0,0,1-1.64,3.34,1.94,1.94,0,0,1-.62.56,9.26,9.26,0,0,0-2.4,2,5.09,5.09,0,0,0-1,1.37,31.32,31.32,0,0,0-1.2,3.09,11.09,11.09,0,0,1-2.18,3.63,20.69,20.69,0,0,0-2.11,2.64,1.59,1.59,0,0,0-.25,1.31,3.38,3.38,0,0,1,.18,1.4,9.33,9.33,0,0,0,2-1.23c1.5-1,3-2,4.39-3a8.8,8.8,0,0,1,1.45-1.27.3.3,0,0,1,.14-.05,91.14,91.14,0,0,1,5.21-8.22,10.83,10.83,0,0,1,.69-1.19,45.72,45.72,0,0,0,3.52-6,2.94,2.94,0,0,0,.13-3.09c.71-1.65,1.32-3.29,2.12-4.84a42.16,42.16,0,0,0,2.08-4.66c.31-.84.67-1.65.94-2.49a14,14,0,0,0,.62-3.77A25.55,25.55,0,0,0,247.58,94.89Z" transform="translate(-11.45 -8.67)"/><path class="cls-1" d="M67.56,141l.62.39a.37.37,0,0,1,.14.2l.57,0a1.83,1.83,0,0,0,1-1.89,3.73,3.73,0,0,0-.26-1.32c-.25-.25-.51-.52-.78-.82a.31.31,0,0,1-.44-.23c0-.12-.05-.24-.07-.37-.38-.44-.75-.92-1.1-1.41-1.61-1.82-2.42-4.45-4.34-5.8a.74.74,0,0,1-.32-.8c0-.09,0-.17,0-.25a5.3,5.3,0,0,1-1.77-2.34,2.64,2.64,0,0,0-.38-.87,2.59,2.59,0,0,1-.57-1.48,5.57,5.57,0,0,0-.56-1.7,3.82,3.82,0,0,1-.48-1.4c0-.2-.26-.53-.41-.53-.46,0-.57-.33-.77-.62a8.7,8.7,0,0,1-1.37-4.1c-.12-.84-.22-1.69-.4-2.52a3.62,3.62,0,0,1-.07-1.79,1.15,1.15,0,0,0,0-.71,1,1,0,0,0-.54-.44.45.45,0,0,0-.53.41,9.32,9.32,0,0,0-.26,1.79,11.56,11.56,0,0,1-.4,3.16,3.09,3.09,0,0,0-.11,1c.09,1.06.23,2.12.31,3.18a4.84,4.84,0,0,1,.08,2.11c0,.11.06.27.11.4.39.91.76,1.83,1.18,2.72a6.06,6.06,0,0,0,.85,1.46,3.65,3.65,0,0,1,.81,1.59,22.67,22.67,0,0,0,.78,3.1,8.27,8.27,0,0,0,3.73,4.63.75.75,0,0,1,.45.78,1.48,1.48,0,0,0,0,.19.26.26,0,0,1,.13.08,24.11,24.11,0,0,0,5.13,4.2A.34.34,0,0,1,67.56,141Z" transform="translate(-11.45 -8.67)"/><path class="cls-1" d="M248.73,117.06c0-.36-.67-.48-1-.22a1.5,1.5,0,0,0-.4.5,12.18,12.18,0,0,0-1.16,2.62,19.16,19.16,0,0,1-2,5,3.55,3.55,0,0,1-.78,1,3.21,3.21,0,0,0-.81,1.11,15.63,15.63,0,0,1-1.13,4.35,10.86,10.86,0,0,1-1.75,2.79c-.35.7-.71,1.4-1.09,2.09a9.35,9.35,0,0,1-2.4,4.78l-.15.4a1.19,1.19,0,0,1-.85.87h0l-.06.07a.3.3,0,0,1-.35.09,1.48,1.48,0,0,0-.69,1.32c-.06.75.11,1.08.71,1.22a13,13,0,0,0,3.75-2.41,8,8,0,0,1,2.45-2.25,3,3,0,0,1,.12-.43c.53-1.43,1.85-2.3,2.59-3.59.2-.33.69-.49,1-.76a3,3,0,0,0,.62-.72c.34-.58.61-1.2,1-1.78a10.61,10.61,0,0,0,1.21-3.17c.17-.74.21-1.41-.35-1.86l.58-2.56c.09-.38.21-.76.31-1.13l1.05-3.91C249.45,119.3,248.88,118.2,248.73,117.06Z" transform="translate(-11.45 -8.67)"/><path class="cls-1" d="M65.74,63.64a14.67,14.67,0,0,1,.5-1.93,2,2,0,0,0,.08-1.33,4.74,4.74,0,0,0,1.43-1.33,1.54,1.54,0,0,0-1.61.8c0,.14.08.32.12.49a.47.47,0,0,0-.59.33,6.7,6.7,0,0,0-.41,2.94Z" transform="translate(-11.45 -8.67)"/><path class="cls-1" d="M63.37,68.89c.3.2.53.07.72-.19s.35-.49.49-.7l-.72-.68a9,9,0,0,0-.69.73A.6.6,0,0,0,63.37,68.89Z" transform="translate(-11.45 -8.67)"/><path class="cls-1" d="M64.59,67.17a2.38,2.38,0,0,0,.59-2.47A2.27,2.27,0,0,0,64.59,67.17Z" transform="translate(-11.45 -8.67)"/><path class="cls-1" d="M84.36,42.51c0-.07-.15-.11-.27-.19l-.56.79C84.4,43.13,84.47,43.07,84.36,42.51Z" transform="translate(-11.45 -8.67)"/><path class="cls-1" d="M85.18,34.83c-.49,0-1-.15-1.08.62C84.6,35.39,85,35.3,85.18,34.83Z" transform="translate(-11.45 -8.67)"/><path class="cls-1" d="M144,98.87l-1.22-.33C143.12,99.18,143.55,99.11,144,98.87Z" transform="translate(-11.45 -8.67)"/><path class="cls-1" d="M86.93,39.6a3.31,3.31,0,0,0-.26-.62l-.31,1C86.77,40.1,87,40,86.93,39.6Z" transform="translate(-11.45 -8.67)"/><path class="cls-1" d="M83.81,113.5c-.55.52-.55.52,0,.69C83.78,114,83.8,113.72,83.81,113.5Z" transform="translate(-11.45 -8.67)"/><path class="cls-1" d="M147.31,99.8l0-.26-.91.09c.29.16.38.25.47.25A2.67,2.67,0,0,0,147.31,99.8Z" transform="translate(-11.45 -8.67)"/><path class="cls-1" d="M150.22,99.34l-1,.24C149.69,100,149.94,99.87,150.22,99.34Z" transform="translate(-11.45 -8.67)"/><path class="cls-1" d="M81.42,48.05s.14-.1.24-.18c-.12-.1-.18-.2-.26-.22s-.19.14-.18.18A.4.4,0,0,0,81.42,48.05Z" transform="translate(-11.45 -8.67)"/><path class="cls-1" d="M107.81,48.16l-.4.33.17.18c.12-.12.24-.23.34-.35S107.85,48.21,107.81,48.16Z" transform="translate(-11.45 -8.67)"/><path class="cls-1" d="M64.48,64.34c-.1-.07-.18-.16-.25-.15s-.13.12-.19.19a1.74,1.74,0,0,0,.26.19A1.18,1.18,0,0,0,64.48,64.34Z" transform="translate(-11.45 -8.67)"/><path class="cls-1" d="M126.91,62.81a1.61,1.61,0,0,0,.33.15c.06,0,.12-.13.25-.28a1.53,1.53,0,0,0-.42-.1C127,62.59,127,62.73,126.91,62.81Z" transform="translate(-11.45 -8.67)"/><rect class="cls-2" x="140.12" y="242.39" width="24.87" height="1.04"/><path class="cls-2" d="M146.67,321.45a1.84,1.84,0,0,1,.44-.62,1.93,1.93,0,0,1,.63-.42,2.05,2.05,0,0,1,1.54,0,2,2,0,0,1,1.05,1,1.85,1.85,0,0,1,.16.78,1.89,1.89,0,0,1-.16.79,2.1,2.1,0,0,1-.42.63,1.76,1.76,0,0,1-.63.41,2.05,2.05,0,0,1-1.54,0,1.76,1.76,0,0,1-.63-.41,2,2,0,0,1-.44-.63,2.06,2.06,0,0,1-.15-.79A2,2,0,0,1,146.67,321.45Zm.33,1.45a1.66,1.66,0,0,0,.34.54,1.73,1.73,0,0,0,.52.36,1.75,1.75,0,0,0,.65.13,1.7,1.7,0,0,0,.64-.13,1.57,1.57,0,0,0,.51-.36,1.53,1.53,0,0,0,.35-.54,1.81,1.81,0,0,0,.12-.67,1.76,1.76,0,0,0-.12-.66,1.49,1.49,0,0,0-.35-.53,1.57,1.57,0,0,0-.51-.36,1.7,1.7,0,0,0-.64-.13,1.75,1.75,0,0,0-.65.13,1.73,1.73,0,0,0-.52.36,1.61,1.61,0,0,0-.34.53,1.76,1.76,0,0,0-.12.66A1.81,1.81,0,0,0,147,322.9Zm1.63-1.82a.93.93,0,0,1,.61.17.6.6,0,0,1,.2.49.59.59,0,0,1-.17.46.82.82,0,0,1-.44.17l.66,1h-.38l-.63-1h-.38v1h-.36v-2.31Zm-.16,1h.23a.65.65,0,0,0,.2-.05.28.28,0,0,0,.13-.11.41.41,0,0,0,.05-.21.36.36,0,0,0,0-.19.29.29,0,0,0-.12-.1.43.43,0,0,0-.16-.05l-.19,0h-.47v.74Z" transform="translate(-11.45 -8.67)"/><path class="cls-2" d="M49.05,269.72h3.66a7.1,7.1,0,0,1,1.95.25,5.4,5.4,0,0,1,1.45.68,4.11,4.11,0,0,1,1,1,4.88,4.88,0,0,1,.64,1.12,5.69,5.69,0,0,1,.35,1.16,7,7,0,0,1,.1,1.07,5.15,5.15,0,0,1-.37,1.94,4.9,4.9,0,0,1-1.1,1.68,5.36,5.36,0,0,1-1.8,1.18,6.54,6.54,0,0,1-2.48.44H49.05Zm1.42,9.16h1.79a5.57,5.57,0,0,0,1.71-.25,4.25,4.25,0,0,0,1.42-.73,3.5,3.5,0,0,0,1-1.22,3.84,3.84,0,0,0,.36-1.71,5.59,5.59,0,0,0-.16-1.18,3.53,3.53,0,0,0-.62-1.28,3.59,3.59,0,0,0-1.25-1,4.47,4.47,0,0,0-2.08-.42H50.47Z" transform="translate(-11.45 -8.67)"/><path class="cls-2" d="M62.16,280.3a1,1,0,0,1-1-1,1,1,0,0,1,.29-.69,1,1,0,0,1,1.38,0,1,1,0,0,1,.29.69,1,1,0,0,1-1,1Z" transform="translate(-11.45 -8.67)"/><path class="cls-2" d="M71.57,280.48a5.51,5.51,0,0,1-2.21-.43,5.07,5.07,0,0,1-1.73-1.16,5.2,5.2,0,0,1-1.12-1.75,6,6,0,0,1,0-4.35A5.3,5.3,0,0,1,67.63,271a5.21,5.21,0,0,1,1.73-1.16,6,6,0,0,1,4.41,0A5.21,5.21,0,0,1,75.5,271a5.3,5.3,0,0,1,1.12,1.75,6,6,0,0,1,0,4.35,5.2,5.2,0,0,1-1.12,1.75,5.07,5.07,0,0,1-1.73,1.16A5.47,5.47,0,0,1,71.57,280.48Zm0-1.34a3.92,3.92,0,0,0,1.63-.33,3.89,3.89,0,0,0,2-2.22,4.86,4.86,0,0,0,0-3.25,3.93,3.93,0,0,0-.8-1.32,3.84,3.84,0,0,0-1.24-.9,3.92,3.92,0,0,0-1.63-.33,3.86,3.86,0,0,0-1.63.33,3.78,3.78,0,0,0-1.25.9,4.09,4.09,0,0,0-.8,1.32,4.86,4.86,0,0,0,0,3.25,4,4,0,0,0,.8,1.32,3.78,3.78,0,0,0,1.25.9A3.86,3.86,0,0,0,71.57,279.14Z" transform="translate(-11.45 -8.67)"/><path class="cls-2" d="M81,280.3a1,1,0,0,1-.69-.29.94.94,0,0,1-.29-.69,1,1,0,0,1,.29-.69,1,1,0,0,1,.69-.29.94.94,0,0,1,.69.29,1,1,0,0,1,.29.69,1,1,0,0,1-1,1Z" transform="translate(-11.45 -8.67)"/><path class="cls-2" d="M90.87,269.72h6.77v1.34H92.29v3.12h5v1.33h-5v3.37H97.9v1.33h-7Z" transform="translate(-11.45 -8.67)"/><path class="cls-2" d="M101.29,278.19a2.18,2.18,0,0,0,.9.78,2.72,2.72,0,0,0,1.15.26,2.34,2.34,0,0,0,.67-.11,2.37,2.37,0,0,0,.62-.3,1.87,1.87,0,0,0,.46-.51,1.42,1.42,0,0,0,.17-.7,1.06,1.06,0,0,0-.35-.85,3,3,0,0,0-.88-.49c-.35-.13-.74-.26-1.15-.39a4.43,4.43,0,0,1-1.15-.51,2.84,2.84,0,0,1-.88-.88,2.73,2.73,0,0,1-.36-1.5,2.39,2.39,0,0,1,.19-.9,2.33,2.33,0,0,1,.58-.87,3.07,3.07,0,0,1,1-.67,3.9,3.9,0,0,1,1.49-.26,5.08,5.08,0,0,1,1.52.22,2.54,2.54,0,0,1,1.27.89l-1.06,1a1.84,1.84,0,0,0-.7-.62,2.26,2.26,0,0,0-1-.23,2.68,2.68,0,0,0-.91.14,1.75,1.75,0,0,0-.58.37,1.33,1.33,0,0,0-.3.49,1.44,1.44,0,0,0-.09.47,1.26,1.26,0,0,0,.35.95,2.83,2.83,0,0,0,.88.53,10.36,10.36,0,0,0,1.15.37,4.69,4.69,0,0,1,1.15.46,2.66,2.66,0,0,1,.88.79,2.3,2.3,0,0,1,.36,1.37,2.84,2.84,0,0,1-.27,1.26,2.81,2.81,0,0,1-.72.94,3.13,3.13,0,0,1-1.06.59,4,4,0,0,1-1.31.21,4.8,4.8,0,0,1-1.77-.33,2.92,2.92,0,0,1-1.32-1Z" transform="translate(-11.45 -8.67)"/><path class="cls-2" d="M111.71,271.76H108.6v-1.23h7.54v1.23H113v8.45h-1.32Z" transform="translate(-11.45 -8.67)"/><path class="cls-2" d="M120.41,270.53h1.18l4.15,9.68h-1.53l-1-2.39h-4.6l-1,2.39h-1.53Zm2.35,6.14L121,272.23h0l-1.84,4.44Z" transform="translate(-11.45 -8.67)"/><path class="cls-2" d="M128.09,270.53h1.72l5.33,8h0v-8h1.31v9.68h-1.67l-5.38-7.95h0v7.95h-1.31Z" transform="translate(-11.45 -8.67)"/><path class="cls-2" d="M146.8,272.63a2.7,2.7,0,0,0-1-.82,3,3,0,0,0-1.3-.29,3.46,3.46,0,0,0-1.49.31,3.34,3.34,0,0,0-1.13.84,3.78,3.78,0,0,0-.73,1.25,4.51,4.51,0,0,0-.26,1.53,4.09,4.09,0,0,0,.25,1.45,3.58,3.58,0,0,0,.71,1.21,3.5,3.5,0,0,0,1.13.82,3.68,3.68,0,0,0,1.52.3,3,3,0,0,0,1.46-.35,3.12,3.12,0,0,0,1.07-.95l1.1.83a3.62,3.62,0,0,1-.38.43,3.4,3.4,0,0,1-.72.56,5,5,0,0,1-1.09.49,4.37,4.37,0,0,1-1.47.22,4.8,4.8,0,0,1-2.07-.44,5,5,0,0,1-2.56-2.76,5,5,0,0,1-.34-1.81,5.64,5.64,0,0,1,.37-2.07,4.86,4.86,0,0,1,1-1.64,4.64,4.64,0,0,1,1.59-1.07,5.42,5.42,0,0,1,2.05-.38,5,5,0,0,1,1.88.37,3.47,3.47,0,0,1,1.51,1.13Z" transform="translate(-11.45 -8.67)"/><path class="cls-2" d="M150.77,270.53h1.31v9.68h-1.31Z" transform="translate(-11.45 -8.67)"/><path class="cls-2" d="M158.7,270.53h1.19l4.14,9.68H162.5l-1-2.39h-4.61l-1,2.39h-1.53Zm2.35,6.14-1.81-4.44h0l-1.83,4.44Z" transform="translate(-11.45 -8.67)"/><path class="cls-2" d="M175.07,269.73h1.29l4.48,10.48h-1.66l-1.05-2.59h-5l-1,2.59h-1.66Zm2.55,6.65-2-4.82h0l-2,4.82Z" transform="translate(-11.45 -8.67)"/><path class="cls-2" d="M185.31,271.76h-3.12v-1.23h7.55v1.23h-3.12v8.45h-1.31Z" transform="translate(-11.45 -8.67)"/><path class="cls-2" d="M194,270.53h1.19l4.14,9.68H197.8l-1-2.39h-4.61l-.95,2.39h-1.53Zm2.35,6.14-1.8-4.44h0l-1.83,4.44Z" transform="translate(-11.45 -8.67)"/><path class="cls-2" d="M201.59,270.53h1.95l3.07,7.33h.06l3.05-7.33h1.95v9.68h-1.31v-7.95h0l-3.27,7.95h-.87l-3.27-7.95h0v7.95h-1.31Z" transform="translate(-11.45 -8.67)"/><path class="cls-2" d="M215.16,270.53h1.31v9.68h-1.31Z" transform="translate(-11.45 -8.67)"/><path class="cls-2" d="M220.33,278.19a2.21,2.21,0,0,0,.91.78,2.71,2.71,0,0,0,1.14.26,2.24,2.24,0,0,0,.67-.11,2.29,2.29,0,0,0,.63-.3,1.84,1.84,0,0,0,.45-.51,1.33,1.33,0,0,0,.18-.7,1.06,1.06,0,0,0-.35-.85,2.9,2.9,0,0,0-.89-.49q-.52-.19-1.14-.39a4.43,4.43,0,0,1-1.15-.51,2.57,2.57,0,0,1-1.24-2.38,2.39,2.39,0,0,1,.19-.9,2.33,2.33,0,0,1,.58-.87,3.07,3.07,0,0,1,1-.67,3.9,3.9,0,0,1,1.49-.26,5.08,5.08,0,0,1,1.52.22,2.54,2.54,0,0,1,1.27.89l-1.07,1a1.74,1.74,0,0,0-.69-.62,2.29,2.29,0,0,0-1-.23,2.64,2.64,0,0,0-.91.14,1.75,1.75,0,0,0-.58.37,1.35,1.35,0,0,0-.31.49,1.71,1.71,0,0,0-.08.47,1.22,1.22,0,0,0,.35.95,2.83,2.83,0,0,0,.88.53,10.36,10.36,0,0,0,1.15.37,4.69,4.69,0,0,1,1.15.46,2.66,2.66,0,0,1,.88.79,2.3,2.3,0,0,1,.36,1.37,2.84,2.84,0,0,1-.27,1.26,2.81,2.81,0,0,1-.72.94,3.13,3.13,0,0,1-1.06.59,4.06,4.06,0,0,1-1.32.21,4.74,4.74,0,0,1-1.76-.33,2.86,2.86,0,0,1-1.32-1Z" transform="translate(-11.45 -8.67)"/><path class="cls-2" d="M238.73,280.21h-5.58a5.07,5.07,0,0,1-1.94-.37,5.21,5.21,0,0,1-1.6-1,4.95,4.95,0,0,1-1.47-3.56,5.09,5.09,0,0,1,.38-2,4.84,4.84,0,0,1,2.65-2.63,5.08,5.08,0,0,1,2-.37,4.94,4.94,0,0,1,1.92.37,4.77,4.77,0,0,1,2.62,2.55,4.64,4.64,0,0,1,.39,1.92,4.94,4.94,0,0,1-.14,1.21,4.79,4.79,0,0,1-.42,1.11,3.79,3.79,0,0,1-.7.93,3.27,3.27,0,0,1-.95.65v0h2.87ZM233.1,279a3.61,3.61,0,0,0,1.45-.29,3.37,3.37,0,0,0,1.14-.81,3.69,3.69,0,0,0,.73-1.21,4.28,4.28,0,0,0,.26-1.49,3.75,3.75,0,0,0-.27-1.43,3.38,3.38,0,0,0-.74-1.17,3.64,3.64,0,0,0-1.14-.77,3.65,3.65,0,0,0-2.85,0,3.67,3.67,0,0,0-1.12.77,3.62,3.62,0,0,0-.75,1.16,3.51,3.51,0,0,0-.28,1.41,4.28,4.28,0,0,0,.26,1.49,3.92,3.92,0,0,0,.73,1.22A3.42,3.42,0,0,0,233.1,279Z" transform="translate(-11.45 -8.67)"/><path class="cls-2" d="M242.34,270.53v5.94a3.83,3.83,0,0,0,.12.93,2.82,2.82,0,0,0,.41.9,2.32,2.32,0,0,0,.75.67,2.36,2.36,0,0,0,1.15.26,2.38,2.38,0,0,0,1.15-.26,2.32,2.32,0,0,0,.75-.67,2.82,2.82,0,0,0,.41-.9,3.83,3.83,0,0,0,.12-.93v-5.94h1.31v6.14a4,4,0,0,1-.28,1.54,3.52,3.52,0,0,1-.8,1.19,3.38,3.38,0,0,1-1.18.78,4.05,4.05,0,0,1-3,0,3.51,3.51,0,0,1-1.19-.78,3.64,3.64,0,0,1-.79-1.19,4,4,0,0,1-.28-1.54v-6.14Z" transform="translate(-11.45 -8.67)"/><path class="cls-2" d="M251.92,270.53h6.24v1.23h-4.93v2.89h4.59v1.23h-4.59V279h5.18v1.23h-6.49Z" transform="translate(-11.45 -8.67)"/><path class="cls-2" d="M12.23,227.08h2.6v11.06H28.74V227.08h2.59v25.51H28.74V240.52H14.83v12.07h-2.6Z" transform="translate(-11.45 -8.67)"/><path class="cls-2" d="M67.44,239.84a14,14,0,0,1-1,5.36,12.61,12.61,0,0,1-7,7,14.31,14.31,0,0,1-10.56,0,12.69,12.69,0,0,1-7-7,14.75,14.75,0,0,1,0-10.73,12.69,12.69,0,0,1,7-7,14.31,14.31,0,0,1,10.56,0,12.61,12.61,0,0,1,7,7A14,14,0,0,1,67.44,239.84Zm-2.81,0a12.28,12.28,0,0,0-.72-4.2,10.6,10.6,0,0,0-2.07-3.52,10.13,10.13,0,0,0-3.3-2.41,11.18,11.18,0,0,0-8.79,0,9.92,9.92,0,0,0-3.3,2.41,10.6,10.6,0,0,0-2.07,3.52,12.58,12.58,0,0,0,0,8.39,10.6,10.6,0,0,0,2.07,3.52,9.92,9.92,0,0,0,3.3,2.41,11.18,11.18,0,0,0,8.79,0,10.13,10.13,0,0,0,3.3-2.41A10.6,10.6,0,0,0,63.91,244,12.26,12.26,0,0,0,64.63,239.84Z" transform="translate(-11.45 -8.67)"/><path class="cls-2" d="M85.13,252.59H82.54V229.46H74v-2.38H93.67v2.38H85.13Z" transform="translate(-11.45 -8.67)"/><path class="cls-2" d="M104.55,250.21h13.66v2.38H102V227.08h15.82v2.38H104.55v8.68h12.36v2.38H104.55Z" transform="translate(-11.45 -8.67)"/><path class="cls-2" d="M130.25,250.21h11.89v2.38H127.65V227.08h2.6Z" transform="translate(-11.45 -8.67)"/><path class="cls-2" d="M209.25,248.56a10.11,10.11,0,0,1-1.61,1.83,9.79,9.79,0,0,1-2.18,1.5,12.31,12.31,0,0,1-5.65,1.35,13.68,13.68,0,0,1-5.28-1,12.61,12.61,0,0,1-7-7,14.75,14.75,0,0,1,0-10.73,12.61,12.61,0,0,1,7-7,13.68,13.68,0,0,1,5.28-1,12.76,12.76,0,0,1,4.75.94,9.46,9.46,0,0,1,4.07,3.1l-2.27,1.69a6,6,0,0,0-1.08-1.23,8.35,8.35,0,0,0-1.57-1.08,9.55,9.55,0,0,0-1.89-.75,7,7,0,0,0-2-.29,10.36,10.36,0,0,0-4.4.9,9.92,9.92,0,0,0-3.3,2.41,10.6,10.6,0,0,0-2.07,3.52,12.58,12.58,0,0,0,0,8.39,10.6,10.6,0,0,0,2.07,3.52,9.92,9.92,0,0,0,3.3,2.41,10.36,10.36,0,0,0,4.4.9,11.07,11.07,0,0,0,2-.18,8.16,8.16,0,0,0,1.95-.61,7.31,7.31,0,0,0,1.8-1.17,8.38,8.38,0,0,0,1.57-1.86Z" transform="translate(-11.45 -8.67)"/><path class="cls-2" d="M220.52,252.59h-2.59V227.08h2.59Z" transform="translate(-11.45 -8.67)"/><path class="cls-2" d="M234.36,250.21H248v2.38H231.77V227.08h15.82v2.38H234.36v8.68h12.36v2.38H234.36Z" transform="translate(-11.45 -8.67)"/><path class="cls-2" d="M260.05,250.21H272v2.38H257.46V227.08h2.59Z" transform="translate(-11.45 -8.67)"/><path class="cls-2" d="M304.66,239.84a14,14,0,0,1-1,5.36,12.69,12.69,0,0,1-7,7,14.31,14.31,0,0,1-10.56,0,12.61,12.61,0,0,1-7-7,14.75,14.75,0,0,1,0-10.73,12.61,12.61,0,0,1,7-7,14.31,14.31,0,0,1,10.56,0,12.69,12.69,0,0,1,7,7A14,14,0,0,1,304.66,239.84Zm-2.81,0a12.28,12.28,0,0,0-.72-4.2,10.6,10.6,0,0,0-2.07-3.52,9.92,9.92,0,0,0-3.3-2.41,11.18,11.18,0,0,0-8.79,0,10,10,0,0,0-3.3,2.41,10.6,10.6,0,0,0-2.07,3.52,12.58,12.58,0,0,0,0,8.39,10.6,10.6,0,0,0,2.07,3.52A10,10,0,0,0,287,250a11.18,11.18,0,0,0,8.79,0,9.92,9.92,0,0,0,3.3-2.41,10.6,10.6,0,0,0,2.07-3.52A12.26,12.26,0,0,0,301.85,239.84Z" transform="translate(-11.45 -8.67)"/><path class="cls-2" d="M152.19,230H157a8.87,8.87,0,0,1,2.55.33,7,7,0,0,1,1.9.88,5.62,5.62,0,0,1,1.34,1.27,6.72,6.72,0,0,1,.85,1.48,7.83,7.83,0,0,1,.44,1.51,8,8,0,0,1,.14,1.4,6.76,6.76,0,0,1-.49,2.55,6.44,6.44,0,0,1-1.43,2.19,7.15,7.15,0,0,1-2.36,1.54,8.42,8.42,0,0,1-3.25.58h-4.47Zm1.86,12h2.34a7.77,7.77,0,0,0,2.24-.32,5.61,5.61,0,0,0,1.85-1,4.62,4.62,0,0,0,1.26-1.6,5.09,5.09,0,0,0,.47-2.24,6.71,6.71,0,0,0-.21-1.54,4.66,4.66,0,0,0-.81-1.68,4.74,4.74,0,0,0-1.64-1.35,5.75,5.75,0,0,0-2.71-.55h-2.79Z" transform="translate(-11.45 -8.67)"/><path class="cls-2" d="M167.64,230h8.86v1.75h-7v4.09H176v1.74H169.5V242h7.35v1.74h-9.21Z" transform="translate(-11.45 -8.67)"/><path class="cls-2" d="M12.12,303.26h3.06v.59H11.45v-6.56h.67Z" transform="translate(-11.45 -8.67)"/><path class="cls-2" d="M17.61,303.85h-.73l2.84-6.56h.64l2.82,6.56h-.74l-.72-1.72H18.33Zm1-2.33h2.89L20,298Z" transform="translate(-11.45 -8.67)"/><path class="cls-2" d="M34.78,302.79a2.86,2.86,0,0,1-.4.47,2.47,2.47,0,0,1-.55.39,3.44,3.44,0,0,1-.68.27,3.07,3.07,0,0,1-.82.1,3.65,3.65,0,0,1-1.38-.26,3.1,3.1,0,0,1-1.08-.72,3.27,3.27,0,0,1-.71-1.09,3.64,3.64,0,0,1-.25-1.38,3.46,3.46,0,0,1,.26-1.38,3.37,3.37,0,0,1,.71-1.09,3.37,3.37,0,0,1,2.45-1,3.26,3.26,0,0,1,.7.07,3.39,3.39,0,0,1,.66.21,2.51,2.51,0,0,1,.55.33,1.9,1.9,0,0,1,.42.43l-.56.41a1.28,1.28,0,0,0-.27-.32,2,2,0,0,0-.4-.27,2.58,2.58,0,0,0-.51-.2,2.15,2.15,0,0,0-.58-.07,2.81,2.81,0,0,0-1.15.23,2.56,2.56,0,0,0-.86.62,2.76,2.76,0,0,0-.53.91,3.09,3.09,0,0,0-.19,1.09,3,3,0,0,0,.19,1.09,2.85,2.85,0,0,0,.54.91,2.56,2.56,0,0,0,.86.62,2.61,2.61,0,0,0,1.14.24,2.49,2.49,0,0,0,1.07-.24,2,2,0,0,0,.85-.74Z" transform="translate(-11.45 -8.67)"/><path class="cls-2" d="M37.26,303.85h-.74l2.84-6.56H40l2.81,6.56h-.74l-.72-1.72H38Zm1-2.33h2.89L39.66,298Z" transform="translate(-11.45 -8.67)"/><path class="cls-2" d="M45.94,303.85h-.67v-6.56H47.2a4.13,4.13,0,0,1,.89.09,2.09,2.09,0,0,1,.71.31,1.3,1.3,0,0,1,.47.54,1.8,1.8,0,0,1,.17.81,1.59,1.59,0,0,1-.13.66,1.54,1.54,0,0,1-.35.51,1.58,1.58,0,0,1-.53.35,2.44,2.44,0,0,1-.67.17l1.92,3.12h-.82l-1.81-3.06H45.94Zm0-3.64h1.15a2.29,2.29,0,0,0,1.25-.29,1,1,0,0,0,.43-.88,1.11,1.11,0,0,0-.12-.54,1.06,1.06,0,0,0-.33-.37,1.53,1.53,0,0,0-.52-.2,3.58,3.58,0,0,0-.68-.06H45.94Z" transform="translate(-11.45 -8.67)"/><path class="cls-2" d="M53,303.85H52.3v-6.56h1.93a4.13,4.13,0,0,1,.89.09,2.15,2.15,0,0,1,.72.31,1.35,1.35,0,0,1,.46.54,1.67,1.67,0,0,1,.17.81,1.59,1.59,0,0,1-.13.66,1.41,1.41,0,0,1-.35.51,1.49,1.49,0,0,1-.53.35,2.27,2.27,0,0,1-.67.17l1.92,3.12H55.9l-1.82-3.06H53Zm0-3.64h1.16a2.27,2.27,0,0,0,1.24-.29,1,1,0,0,0,.43-.88,1.11,1.11,0,0,0-.12-.54,1.06,1.06,0,0,0-.33-.37,1.45,1.45,0,0,0-.52-.2,3.51,3.51,0,0,0-.68-.06H53Z" transform="translate(-11.45 -8.67)"/><path class="cls-2" d="M60,303.26h3.51v.59H59.33v-6.56H63.4v.59H60v2.26h3.18v.59H60Z" transform="translate(-11.45 -8.67)"/><path class="cls-2" d="M67,303.85H66.3v-6.56h1.93a4.13,4.13,0,0,1,.89.09,2.15,2.15,0,0,1,.72.31,1.35,1.35,0,0,1,.46.54,1.67,1.67,0,0,1,.17.81,1.59,1.59,0,0,1-.13.66,1.41,1.41,0,0,1-.35.51,1.49,1.49,0,0,1-.53.35,2.27,2.27,0,0,1-.67.17l1.92,3.12H69.9l-1.82-3.06H67Zm0-3.64h1.16a2.27,2.27,0,0,0,1.24-.29,1,1,0,0,0,.43-.88,1.11,1.11,0,0,0-.12-.54,1.06,1.06,0,0,0-.33-.37,1.45,1.45,0,0,0-.52-.2,3.51,3.51,0,0,0-.68-.06H67Z" transform="translate(-11.45 -8.67)"/><path class="cls-2" d="M73.29,303.85h-.73l2.83-6.56H76l2.82,6.56h-.75l-.72-1.72H74Zm1-2.33h2.89L75.7,298Z" transform="translate(-11.45 -8.67)"/><path class="cls-2" d="M85.77,303.41a.49.49,0,0,1-.14.34.49.49,0,0,1-.72,0,.45.45,0,0,1-.14-.34.47.47,0,0,1,.14-.35.51.51,0,0,1,.72,0A.52.52,0,0,1,85.77,303.41Z" transform="translate(-11.45 -8.67)"/><path class="cls-2" d="M94.23,303.85h-.67v-6h-2.2v-.59h5.06v.59H94.23Z" transform="translate(-11.45 -8.67)"/><path class="cls-2" d="M101.31,304a2.57,2.57,0,0,1-1.22-.26,2.24,2.24,0,0,1-.75-.64,2.41,2.41,0,0,1-.38-.85,3.83,3.83,0,0,1-.11-.86v-4.12h.67v4a3.39,3.39,0,0,0,.09.78,1.81,1.81,0,0,0,.3.66,1.61,1.61,0,0,0,.55.48,2.07,2.07,0,0,0,1.69,0,1.61,1.61,0,0,0,.55-.48,1.81,1.81,0,0,0,.3-.66,3.39,3.39,0,0,0,.09-.78v-4h.67v4.12a3.33,3.33,0,0,1-.11.86,2.25,2.25,0,0,1-.38.85,2.1,2.1,0,0,1-.76.64A2.51,2.51,0,0,1,101.31,304Z" transform="translate(-11.45 -8.67)"/><path class="cls-2" d="M107,297.29h1.85a3.6,3.6,0,0,1,.91.11,2.14,2.14,0,0,1,.7.32,1.6,1.6,0,0,1,.45.55,1.86,1.86,0,0,1,.16.77,1.73,1.73,0,0,1-.17.78,1.39,1.39,0,0,1-.45.54,1.89,1.89,0,0,1-.7.33,3.32,3.32,0,0,1-.92.11h-1.16v3.05H107Zm.67,2.95h1.13a1.92,1.92,0,0,0,1.19-.31,1,1,0,0,0,.41-.89,1,1,0,0,0-.42-.89,2.1,2.1,0,0,0-1.18-.28h-1.13Z" transform="translate(-11.45 -8.67)"/><path class="cls-2" d="M116.22,304a2.52,2.52,0,0,1-1.21-.26,2.06,2.06,0,0,1-.75-.64,2.44,2.44,0,0,1-.39-.85,3.79,3.79,0,0,1-.1-.86v-4.12h.66v4a3.4,3.4,0,0,0,.1.78,1.81,1.81,0,0,0,.3.66,1.61,1.61,0,0,0,.55.48,2.07,2.07,0,0,0,1.69,0,1.71,1.71,0,0,0,.55-.48,1.81,1.81,0,0,0,.3-.66,3.39,3.39,0,0,0,.09-.78v-4h.67v4.12a3.83,3.83,0,0,1-.11.86,2.41,2.41,0,0,1-.38.85,2.18,2.18,0,0,1-.76.64A2.55,2.55,0,0,1,116.22,304Z" transform="translate(-11.45 -8.67)"/><path class="cls-2" d="M126.52,302.88h0v-5.59h.67v6.56h-.83l-3.82-5.64h0v5.64h-.66v-6.56h.83Z" transform="translate(-11.45 -8.67)"/><path class="cls-2" d="M135.4,298.48a2.4,2.4,0,0,0-.81-.56,2.68,2.68,0,0,0-1.09-.2,2.71,2.71,0,0,0-1.13.23,2.47,2.47,0,0,0-.86.62,2.71,2.71,0,0,0-.54.91,3.25,3.25,0,0,0,0,2.19,2.62,2.62,0,0,0,1.4,1.52,2.57,2.57,0,0,0,1.13.24,3.65,3.65,0,0,0,1-.13,2.66,2.66,0,0,0,.75-.3v-2h-1.53v-.6h2.2v3a4.37,4.37,0,0,1-1.16.48,5,5,0,0,1-1.29.16,3.63,3.63,0,0,1-1.37-.26,3.23,3.23,0,0,1-1.79-1.81,3.79,3.79,0,0,1,0-2.76,3.26,3.26,0,0,1,1.81-1.81,3.49,3.49,0,0,1,1.35-.25,3.58,3.58,0,0,1,1.37.23,3,3,0,0,1,1,.65Z" transform="translate(-11.45 -8.67)"/><path class="cls-2" d="M139.08,303.85h-.73l2.83-6.56h.65l2.82,6.56h-.74l-.73-1.72h-3.39Zm1-2.33h2.89L141.49,298Z" transform="translate(-11.45 -8.67)"/><path class="cls-2" d="M148.64,303.85H148v-6h-2.19v-.59h5.06v.59h-2.2Z" transform="translate(-11.45 -8.67)"/><path class="cls-2" d="M159.51,300.57a3.65,3.65,0,0,1-.26,1.38,3.14,3.14,0,0,1-.72,1.09,3.2,3.2,0,0,1-1.08.72,3.69,3.69,0,0,1-2.72,0,3.2,3.2,0,0,1-1.08-.72,3.14,3.14,0,0,1-.72-1.09,3.79,3.79,0,0,1,0-2.76,3.24,3.24,0,0,1,.72-1.09,3.52,3.52,0,0,1,1.08-.72,3.82,3.82,0,0,1,2.72,0,3.52,3.52,0,0,1,1.08.72,3.24,3.24,0,0,1,.72,1.09A3.65,3.65,0,0,1,159.51,300.57Zm-.71,0a3.34,3.34,0,0,0-.18-1.1,2.71,2.71,0,0,0-.54-.91,2.47,2.47,0,0,0-.86-.62,2.89,2.89,0,0,0-2.26,0,2.47,2.47,0,0,0-.86.62,2.71,2.71,0,0,0-.54.91,3.42,3.42,0,0,0,0,2.19,2.62,2.62,0,0,0,1.4,1.52,2.78,2.78,0,0,0,2.26,0,2.62,2.62,0,0,0,1.4-1.52A3.32,3.32,0,0,0,158.8,300.58Z" transform="translate(-11.45 -8.67)"/><path class="cls-2" d="M167,303.41a.45.45,0,0,1-.14.34.44.44,0,0,1-.36.16.45.45,0,0,1-.36-.16.49.49,0,0,1-.14-.34.52.52,0,0,1,.14-.35.48.48,0,0,1,.36-.15.46.46,0,0,1,.36.15A.47.47,0,0,1,167,303.41Z" transform="translate(-11.45 -8.67)"/><path class="cls-2" d="M176.83,302.72h0l2.2-5.43h1v6.56h-.67v-5.7h0l-2.37,5.7h-.35l-2.37-5.7h0v5.7h-.67v-6.56h1Z" transform="translate(-11.45 -8.67)"/><path class="cls-2" d="M184,303.26h3.51v.59h-4.18v-6.56h4.07v.59H184v2.26h3.18v.59H184Z" transform="translate(-11.45 -8.67)"/><path class="cls-2" d="M194.9,302.88h0v-5.59h.67v6.56h-.84l-3.81-5.64h0v5.64h-.67v-6.56h.84Z" transform="translate(-11.45 -8.67)"/><path class="cls-2" d="M198.81,297.29H201a3.79,3.79,0,0,1,1.23.21,3.35,3.35,0,0,1,1.11.61,3.14,3.14,0,0,1,.8,1,3.48,3.48,0,0,1,0,2.87,3,3,0,0,1-.8,1,3.37,3.37,0,0,1-1.11.62,4.06,4.06,0,0,1-1.23.2h-2.18Zm.67,6h1.32a3.43,3.43,0,0,0,1.3-.23,2.85,2.85,0,0,0,.91-.61,2.5,2.5,0,0,0,.54-.86,2.81,2.81,0,0,0,0-2,2.5,2.5,0,0,0-.54-.86,2.67,2.67,0,0,0-.91-.6,3.24,3.24,0,0,0-1.3-.24h-1.32Z" transform="translate(-11.45 -8.67)"/><path class="cls-2" d="M213.79,300.57a3.46,3.46,0,0,1-.26,1.38,3.2,3.2,0,0,1-1.8,1.81,3.58,3.58,0,0,1-1.36.26,3.53,3.53,0,0,1-1.35-.26,3.2,3.2,0,0,1-1.8-1.81,3.79,3.79,0,0,1,0-2.76,3.37,3.37,0,0,1,.71-1.09,3.57,3.57,0,0,1,1.09-.72,3.52,3.52,0,0,1,1.35-.25,3.37,3.37,0,0,1,2.45,1,3.37,3.37,0,0,1,.71,1.09A3.46,3.46,0,0,1,213.79,300.57Zm-.7,0a3.1,3.1,0,0,0-.19-1.1,2.86,2.86,0,0,0-.53-.91,2.56,2.56,0,0,0-.86-.62,2.8,2.8,0,0,0-1.14-.23,2.75,2.75,0,0,0-1.13.23,2.56,2.56,0,0,0-.86.62,3.09,3.09,0,0,0-.54.91,3.42,3.42,0,0,0,0,2.19,2.8,2.8,0,0,0,.54.9,2.56,2.56,0,0,0,.86.62,2.6,2.6,0,0,0,1.13.24,2.64,2.64,0,0,0,1.14-.24,2.56,2.56,0,0,0,.86-.62,2.61,2.61,0,0,0,.53-.9A3.09,3.09,0,0,0,213.09,300.58Z" transform="translate(-11.45 -8.67)"/><path class="cls-2" d="M220.53,297.85l-3.83,5.41h3.89v.59h-4.73v-.55l3.84-5.42H216v-.59h4.57Z" transform="translate(-11.45 -8.67)"/><path class="cls-2" d="M223.18,303.85h-.73l2.83-6.56h.65l2.82,6.56H228l-.73-1.72h-3.39Zm1-2.33H227L225.59,298Z" transform="translate(-11.45 -8.67)"/><path class="cls-2" d="M235.66,303.41a.49.49,0,0,1-.14.34.48.48,0,0,1-.72,0,.45.45,0,0,1-.14-.34.47.47,0,0,1,.14-.35.51.51,0,0,1,.72,0A.52.52,0,0,1,235.66,303.41Z" transform="translate(-11.45 -8.67)"/><path class="cls-2" d="M242,303.85h-.73l2.84-6.56h.65l2.81,6.56h-.74l-.72-1.72h-3.39Zm1-2.33h2.89L244.43,298Z" transform="translate(-11.45 -8.67)"/><path class="cls-2" d="M250.71,303.85H250v-6.56H252a4.13,4.13,0,0,1,.89.09,2.09,2.09,0,0,1,.71.31,1.37,1.37,0,0,1,.47.54,1.8,1.8,0,0,1,.17.81,1.59,1.59,0,0,1-.13.66,1.54,1.54,0,0,1-.35.51,1.58,1.58,0,0,1-.53.35,2.44,2.44,0,0,1-.67.17l1.92,3.12h-.82l-1.81-3.06h-1.11Zm0-3.64h1.15a2.29,2.29,0,0,0,1.25-.29,1,1,0,0,0,.43-.88,1.11,1.11,0,0,0-.12-.54,1.06,1.06,0,0,0-.33-.37,1.53,1.53,0,0,0-.52-.2,3.58,3.58,0,0,0-.68-.06h-1.18Z" transform="translate(-11.45 -8.67)"/><path class="cls-2" d="M262.05,298.48a2.35,2.35,0,0,0-.82-.56,2.63,2.63,0,0,0-1.08-.2A2.8,2.8,0,0,0,259,298a2.52,2.52,0,0,0-.85.62,2.92,2.92,0,0,0-.55.91,3.25,3.25,0,0,0,0,2.19,2.66,2.66,0,0,0,.55.9,2.52,2.52,0,0,0,.85.62,2.64,2.64,0,0,0,1.14.24,3.65,3.65,0,0,0,1-.13,2.79,2.79,0,0,0,.75-.3v-2h-1.53v-.6h2.19v3a4.18,4.18,0,0,1-1.15.48,5.07,5.07,0,0,1-1.29.16,3.59,3.59,0,0,1-1.37-.26A3.2,3.2,0,0,1,257,302a3.86,3.86,0,0,1,0-2.76,3.24,3.24,0,0,1,.72-1.09,3.4,3.4,0,0,1,1.08-.72,4,4,0,0,1,2.73,0,3.14,3.14,0,0,1,1,.65Z" transform="translate(-11.45 -8.67)"/><path class="cls-2" d="M266.44,303.26H270v.59h-4.18v-6.56h4.07v.59h-3.4v2.26h3.18v.59h-3.18Z" transform="translate(-11.45 -8.67)"/><path class="cls-2" d="M277.39,302.88h0v-5.59h.67v6.56h-.84l-3.81-5.64h0v5.64h-.67v-6.56h.83Z" transform="translate(-11.45 -8.67)"/><path class="cls-2" d="M283.4,303.85h-.66v-6h-2.2v-.59h5.06v.59h-2.2Z" transform="translate(-11.45 -8.67)"/><path class="cls-2" d="M288.73,303.85h-.67v-6.56h.67Z" transform="translate(-11.45 -8.67)"/><path class="cls-2" d="M296.61,302.88h0v-5.59h.67v6.56h-.83l-3.82-5.64h0v5.64H292v-6.56h.83Z" transform="translate(-11.45 -8.67)"/><path class="cls-2" d="M300.47,303.85h-.73l2.83-6.56h.65l2.82,6.56h-.74l-.73-1.72h-3.39Zm1-2.33h2.89L302.88,298Z" transform="translate(-11.45 -8.67)"/></svg>